<svg width="968" height="274" viewBox="0 0 968 274" fill="none" xmlns="http://www.w3.org/2000/svg">
<path d="M324.744 97.224H341.184V99.744H342.888V95.736H333.84V93.912H332.088V95.736H323.112V99.744H324.744V97.224ZM337.2 100.752C338.736 101.568 340.656 102.864 341.616 103.728L342.792 102.696C341.808 101.832 339.84 100.632 338.304 99.84L337.2 100.752ZM328.272 100.008C327.144 101.04 325.272 102 323.52 102.648C323.856 102.912 324.408 103.512 324.624 103.824C326.424 103.032 328.488 101.784 329.76 100.464L328.272 100.008ZM327.576 109.752H338.472V111.048H327.576V109.752ZM327.84 105.024H338.472V106.272H327.576V105.072L327.84 105.024ZM338.472 108.648H327.576V107.376H338.472V108.648ZM340.272 112.176V103.872H332.496C334.464 103.272 336.288 102.552 337.68 101.664L336.168 100.92C335.496 101.304 334.656 101.688 333.744 102.024V99.744H339.552V98.424H326.448V99.744H332.16V102.528C330.264 103.08 328.08 103.536 325.92 103.872H325.848C324.528 104.088 323.208 104.256 321.936 104.376C322.248 104.76 322.728 105.48 322.92 105.864C323.856 105.72 324.84 105.576 325.848 105.408V112.176H329.808C328.32 113.184 324.984 114.168 322.2 114.624C322.56 114.96 323.064 115.56 323.304 115.896C326.16 115.368 329.52 114.336 331.392 113.112L329.952 112.176H340.272ZM334.56 113.232C337.512 114.072 340.44 115.08 342.144 115.848L343.728 114.768C341.808 114 338.664 112.992 335.76 112.2L334.56 113.232ZM348.648 97.728H365.256V100.56H367.032V96.072H357.84V93.936H356.04V96.072H346.944V100.56H348.648V97.728ZM352.008 108.504C353.76 107.88 355.464 107.136 357.048 106.248C358.752 107.184 360.648 107.928 362.688 108.504H352.008ZM352.176 113.472V109.992H361.872V113.472H352.176ZM353.496 101.328H360.72C359.76 102.432 358.512 103.44 357.072 104.328C355.608 103.488 354.36 102.528 353.424 101.424L353.496 101.328ZM362.256 99.84L361.944 99.912H354.864C355.272 99.456 355.632 98.976 355.968 98.496L354.048 98.136C352.848 99.984 350.52 102.072 347.232 103.536C347.64 103.824 348.168 104.4 348.432 104.808C349.848 104.112 351.096 103.32 352.176 102.456C353.088 103.512 354.192 104.448 355.416 105.264C352.536 106.752 349.152 107.832 345.936 108.408C346.272 108.792 346.656 109.512 346.824 109.968C348.024 109.704 349.248 109.392 350.472 109.008V115.8H352.176V115.008H361.872V115.776H363.672V108.768C364.728 109.032 365.808 109.248 366.912 109.416C367.152 108.888 367.632 108.144 368.04 107.712C364.656 107.28 361.416 106.44 358.728 105.192C360.648 103.896 362.304 102.36 363.456 100.584L362.256 99.84ZM387.168 99.864C386.904 100.464 386.544 101.04 386.112 101.544C385.56 101.208 384.96 100.848 384.36 100.512C384.528 100.296 384.672 100.08 384.816 99.864H387.168ZM380.664 97.56H389.52V105.288H383.064C384.216 104.784 385.32 104.064 386.28 103.128C386.88 103.56 387.408 103.968 387.84 104.352L388.704 103.44C388.296 103.056 387.744 102.648 387.096 102.216C387.816 101.328 388.368 100.296 388.752 99.12L387.96 98.784L387.72 98.856H385.368C385.536 98.544 385.68 98.232 385.8 97.92L384.576 97.752C384.312 98.448 383.88 99.216 383.328 99.96C382.92 99.744 382.512 99.552 382.128 99.384L381.24 100.224C381.672 100.416 382.104 100.632 382.536 100.848C382.128 101.304 381.648 101.712 381.096 102.096C381.408 102.24 381.792 102.6 382.032 102.864C382.632 102.408 383.16 101.928 383.616 101.424C384.192 101.76 384.744 102.096 385.272 102.456C384.312 103.344 383.184 104.016 382.032 104.448C382.272 104.64 382.56 105 382.704 105.288H380.664V97.56ZM382.392 107.496C383.808 108.288 385.44 109.488 386.232 110.352L387.384 109.344C386.592 108.504 385.032 107.4 383.664 106.68H391.008V96.168H385.416C385.728 95.568 386.064 94.896 386.376 94.224L384.432 93.864C384.264 94.536 383.952 95.4 383.664 96.168H379.224V106.68H383.352L382.392 107.496ZM371.208 107.52C370.944 109.608 370.488 111.768 369.744 113.232C370.08 113.352 370.776 113.664 371.04 113.856C371.808 112.32 372.336 110.04 372.672 107.784L371.208 107.52ZM376.92 105.6C377.112 106.176 377.256 106.704 377.328 107.136L378.696 106.56C378.408 105.216 377.568 103.128 376.656 101.544L375.408 102.024C375.744 102.672 376.08 103.392 376.368 104.112L373.152 104.28C374.688 102.264 376.464 99.528 377.76 97.296L376.296 96.648C375.672 97.92 374.808 99.48 373.872 100.968C373.536 100.512 373.104 99.984 372.624 99.456C373.464 98.136 374.496 96.168 375.312 94.512L373.776 93.936C373.296 95.256 372.432 97.104 371.664 98.472C371.424 98.232 371.16 97.968 370.92 97.752L369.96 98.856C371.064 99.888 372.264 101.28 372.96 102.36C372.48 103.104 372 103.776 371.544 104.376C370.92 104.4 370.32 104.424 369.792 104.448L369.96 106.056C371.04 105.984 372.264 105.912 373.584 105.816V115.824H375.144V105.72L376.92 105.6ZM375.84 107.832C376.392 109.2 376.872 111 376.944 112.176L378.288 111.792C378.144 110.616 377.688 108.816 377.088 107.448L375.84 107.832ZM378.96 115.152C380.256 113.928 380.784 111.864 381.12 109.872L379.704 109.536C379.416 111.36 378.816 113.256 377.64 114.384L378.96 115.152ZM384.36 114.288C383.688 114.288 383.568 114.216 383.568 113.688V109.176H382.008V113.688C382.008 115.32 382.44 115.752 384.168 115.752H386.88C388.224 115.752 388.656 115.2 388.848 112.872C388.392 112.752 387.744 112.512 387.432 112.248C387.384 114.072 387.264 114.288 386.664 114.288H384.36ZM388.176 109.704C389.376 111.336 390.456 113.496 390.84 114.984L392.232 114.312C391.848 112.824 390.744 110.688 389.496 109.08L388.176 109.704ZM412.872 100.008C412.512 102.96 411.936 105.504 411.048 107.688C410.184 105.504 409.608 102.984 409.2 100.32C409.224 100.2 409.248 100.104 409.272 100.008H412.872ZM404.28 105.744H401.136V104.16H404.28V105.744ZM396.6 104.16H399.576V105.744H396.6V104.16ZM402.912 109.728C402.528 110.736 401.976 111.528 401.208 112.2C400.224 111.744 399.168 111.336 398.112 110.976C398.328 110.592 398.568 110.208 398.784 109.8L402.912 109.728ZM397.2 100.608V99.216H399.576V100.608H397.2ZM399.576 96.624V97.992H397.2V96.624H399.576ZM403.704 96.624V97.992H401.136V96.624H403.704ZM401.136 100.608V99.216H403.704V100.608H401.136ZM415.968 100.008V98.328H409.704C410.016 96.984 410.256 95.592 410.472 94.176L408.768 93.912C408.24 97.776 407.328 101.592 405.84 104.184V102.96H401.136V101.856H405.288V99.288H406.968V97.944H405.288V95.4H401.136V93.912H399.576V95.4H395.688V97.944H394.032V99.288H395.688V101.856H399.576V102.96H395.088V106.944H398.616C398.376 107.424 398.112 107.928 397.824 108.456C396.408 108.48 395.136 108.48 394.056 108.48L394.104 109.872L397.08 109.824C396.552 110.76 396.024 111.648 395.568 112.344L397.032 112.776L397.44 112.104C398.256 112.416 399.072 112.752 399.864 113.112C398.52 113.808 396.792 114.24 394.632 114.504C394.92 114.864 395.208 115.488 395.328 115.92C397.896 115.464 399.936 114.84 401.424 113.88C402.48 114.408 403.392 114.936 404.112 115.44L405.24 114.336C404.544 113.856 403.68 113.376 402.672 112.872C403.56 112.032 404.16 111 404.544 109.704L407.04 109.656L407.112 108.312C404.52 108.36 401.904 108.408 399.528 108.432C399.816 107.928 400.08 107.424 400.32 106.944H405.84V104.928C406.224 105.24 406.656 105.672 406.848 105.912C407.352 105.144 407.784 104.256 408.192 103.296C408.648 105.624 409.272 107.784 410.064 109.68C408.936 111.648 407.424 113.208 405.408 114.408C405.72 114.768 406.248 115.512 406.416 115.872C408.288 114.672 409.776 113.208 410.928 111.456C411.96 113.304 413.256 114.792 414.864 115.848C415.128 115.416 415.68 114.768 416.088 114.432C414.36 113.4 412.992 111.768 411.936 109.704C413.256 107.064 414.072 103.872 414.6 100.008H415.968ZM438.633 106.5C438.18 107.039 437.637 107.473 437.004 107.801C436.379 108.129 435.691 108.293 434.941 108.293C433.957 108.293 433.098 108.051 432.363 107.566C431.637 107.082 431.074 106.402 430.676 105.527C430.277 104.645 430.078 103.672 430.078 102.609C430.078 101.469 430.293 100.441 430.723 99.5273C431.16 98.6133 431.777 97.9141 432.574 97.4297C433.371 96.9453 434.301 96.7031 435.363 96.7031C437.051 96.7031 438.379 97.3359 439.348 98.6016C440.324 99.8594 440.812 101.578 440.812 103.758V104.391C440.812 107.711 440.156 110.137 438.844 111.668C437.531 113.191 435.551 113.973 432.902 114.012H432.48V112.184H432.938C434.727 112.152 436.102 111.688 437.062 110.789C438.023 109.883 438.547 108.453 438.633 106.5ZM435.293 106.5C436.02 106.5 436.688 106.277 437.297 105.832C437.914 105.387 438.363 104.836 438.645 104.18V103.312C438.645 101.891 438.336 100.734 437.719 99.8438C437.102 98.9531 436.32 98.5078 435.375 98.5078C434.422 98.5078 433.656 98.875 433.078 99.6094C432.5 100.336 432.211 101.297 432.211 102.492C432.211 103.656 432.488 104.617 433.043 105.375C433.605 106.125 434.355 106.5 435.293 106.5ZM444.797 105.445L445.664 96.9375H454.406V98.9414H447.504L446.988 103.594C447.824 103.102 448.773 102.855 449.836 102.855C451.391 102.855 452.625 103.371 453.539 104.402C454.453 105.426 454.91 106.812 454.91 108.562C454.91 110.32 454.434 111.707 453.48 112.723C452.535 113.73 451.211 114.234 449.508 114.234C448 114.234 446.77 113.816 445.816 112.98C444.863 112.145 444.32 110.988 444.188 109.512H446.238C446.371 110.488 446.719 111.227 447.281 111.727C447.844 112.219 448.586 112.465 449.508 112.465C450.516 112.465 451.305 112.121 451.875 111.434C452.453 110.746 452.742 109.797 452.742 108.586C452.742 107.445 452.43 106.531 451.805 105.844C451.188 105.148 450.363 104.801 449.332 104.801C448.387 104.801 447.645 105.008 447.105 105.422L446.531 105.891L444.797 105.445ZM466.635 94.656C466.467 97.824 466.467 109.272 456.747 114.24C457.299 114.6 457.875 115.176 458.187 115.608C464.259 112.32 466.731 106.536 467.787 101.736C468.939 106.536 471.579 112.68 477.771 115.608C478.035 115.128 478.587 114.528 479.091 114.144C470.067 110.016 468.771 98.928 468.555 95.76C468.579 95.352 468.579 94.968 468.603 94.656H466.635Z" fill="#333333"/>
<path d="M326.496 156.704H332.04V159.272H326.496V156.704ZM326.496 152.72H332.04V155.264H326.496V152.72ZM339.456 155.264H333.792V152.72H339.456V155.264ZM339.456 159.272H333.792V156.704H339.456V159.272ZM333.072 163.136C333.264 162.392 333.408 161.6 333.504 160.808H341.28V151.184H324.72V160.808H331.656C331.56 161.624 331.416 162.416 331.224 163.136H322.8V164.768H330.672C329.52 167.336 327.264 169.256 322.128 170.312C322.464 170.672 322.92 171.368 323.064 171.848C328.944 170.528 331.416 168.056 332.616 164.768H340.128C339.792 168.056 339.408 169.52 338.856 169.952C338.616 170.168 338.352 170.192 337.824 170.192C337.272 170.192 335.712 170.168 334.128 170.048C334.464 170.504 334.68 171.176 334.728 171.68C336.24 171.752 337.704 171.776 338.472 171.752C339.288 171.704 339.816 171.56 340.344 171.056C341.112 170.336 341.568 168.464 342 163.928C342.048 163.688 342.072 163.136 342.072 163.136H333.072ZM367.656 155.744V154.04H357.816V149.864H356.016V154.04H346.344V155.744H353.712C353.424 161.264 352.728 167.48 346.104 170.456C346.56 170.816 347.112 171.464 347.376 171.92C352.248 169.568 354.168 165.608 355.008 161.36H362.928C362.52 166.904 362.064 169.256 361.344 169.88C361.104 170.12 360.768 170.144 360.216 170.144C359.616 170.144 357.912 170.144 356.208 169.976C356.544 170.456 356.784 171.2 356.832 171.704C358.44 171.8 360 171.824 360.84 171.776C361.752 171.728 362.328 171.56 362.88 170.984C363.816 170.024 364.296 167.384 364.776 160.544C364.8 160.256 364.824 159.68 364.824 159.68H355.272C355.464 158.36 355.56 157.04 355.632 155.744H367.656ZM380.496 152.432H376.44V149.984H374.736V152.432H370.536V153.944H380.496V152.432ZM372 154.352C372.48 155.48 372.84 156.992 372.936 157.976L374.424 157.592C374.328 156.632 373.896 155.144 373.368 154.04L372 154.352ZM377.736 153.992C377.52 155.072 377.016 156.632 376.68 157.616L378.048 157.976C378.456 157.04 378.936 155.624 379.344 154.376L377.736 153.992ZM380.568 167.456C379.992 166.904 377.496 164.816 376.488 164.048V163.472H380.568V161.96H376.488V159.512H380.76V157.976H370.056V159.512H374.784V161.96H370.296V163.472H374.328C373.248 165.584 371.472 167.696 369.816 168.824C370.2 169.16 370.632 169.76 370.872 170.192C372.24 169.112 373.68 167.408 374.784 165.632V171.8H376.488V165.752C377.568 166.784 378.912 168.104 379.464 168.776L380.568 167.456ZM383.208 160.4H389.208V162.896H383.208V160.4ZM383.208 156.44H389.208V158.936H383.208V156.44ZM383.208 152.552H389.208V155.024H383.208V152.552ZM388.824 169.952C388.392 169.952 388.32 169.88 388.32 169.328V164.504H390.888V150.968H381.576V164.504H383.136C382.848 167.504 382.056 169.472 378.888 170.576C379.248 170.888 379.704 171.512 379.896 171.896C383.448 170.504 384.456 168.128 384.792 164.504H386.688V169.352C386.688 171.008 387.048 171.536 388.584 171.536H390.312C391.632 171.536 392.088 170.744 392.184 167.456C391.752 167.336 391.056 167.072 390.72 166.808C390.672 169.616 390.6 169.952 390.12 169.952H388.824ZM410.424 160.52C409.584 162.8 408.24 164.648 406.608 166.16C404.784 164.624 403.392 162.728 402.432 160.52H410.424ZM411.552 158.72L411.264 158.816H401.856C402.12 157.712 402.288 156.632 402.432 155.648H415.32V153.92H402.648C402.864 152.096 402.912 150.656 402.96 149.912H401.112C401.112 150.56 401.064 152.024 400.848 153.92H394.752V155.648H400.632C399.96 160.256 398.28 166.4 393.96 169.856C394.512 170.192 395.136 170.624 395.496 171.08C398.352 168.632 400.104 165.056 401.16 161.528C402.192 163.76 403.56 165.704 405.264 167.24C403.248 168.704 400.92 169.736 398.448 170.36C398.832 170.696 399.24 171.392 399.456 171.848C402.096 171.104 404.544 170 406.68 168.392C408.888 170.024 411.552 171.176 414.792 171.824C415.008 171.344 415.512 170.6 415.92 170.24C412.824 169.664 410.208 168.68 408.048 167.24C410.184 165.272 411.84 162.656 412.776 159.272L411.552 158.72ZM439.477 164.27H441.844V166.039H439.477V170H437.297V166.039H429.527V164.762L437.168 152.938H439.477V164.27ZM431.988 164.27H437.297V155.902L437.039 156.371L431.988 164.27ZM454.5 162.723C454.5 165.262 454.066 167.148 453.199 168.383C452.332 169.617 450.977 170.234 449.133 170.234C447.312 170.234 445.965 169.633 445.09 168.43C444.215 167.219 443.762 165.414 443.73 163.016V160.121C443.73 157.613 444.164 155.75 445.031 154.531C445.898 153.312 447.258 152.703 449.109 152.703C450.945 152.703 452.297 153.293 453.164 154.473C454.031 155.645 454.477 157.457 454.5 159.91V162.723ZM452.332 159.758C452.332 157.922 452.074 156.586 451.559 155.75C451.043 154.906 450.227 154.484 449.109 154.484C448 154.484 447.191 154.902 446.684 155.738C446.176 156.574 445.914 157.859 445.898 159.594V163.062C445.898 164.906 446.164 166.27 446.695 167.152C447.234 168.027 448.047 168.465 449.133 168.465C450.203 168.465 450.996 168.051 451.512 167.223C452.035 166.395 452.309 165.09 452.332 163.309V159.758ZM466.635 150.656C466.467 153.824 466.467 165.272 456.747 170.24C457.299 170.6 457.875 171.176 458.187 171.608C464.259 168.32 466.731 162.536 467.787 157.736C468.939 162.536 471.579 168.68 477.771 171.608C478.035 171.128 478.587 170.528 479.091 170.144C470.067 166.016 468.771 154.928 468.555 151.76C468.579 151.352 468.579 150.968 468.603 150.656H466.635Z" fill="#BC8129"/>
<path d="M338.04 185.424C337.296 188.808 336.144 191.4 334.272 193.368C332.136 192.408 329.952 191.544 327.936 190.848C328.68 189.192 329.472 187.32 330.264 185.424H338.04ZM343.8 185.424V183.624H331.008C331.776 181.752 332.496 179.928 333.12 178.272L331.224 177.936C330.6 179.664 329.832 181.632 329.016 183.624H322.296V185.424H328.272C327.096 188.232 325.896 190.944 324.936 192.912L326.688 193.56C326.856 193.2 327.048 192.792 327.24 192.384C329.04 193.056 330.936 193.848 332.784 194.688C330.384 196.464 327.096 197.568 322.488 198.192C322.848 198.624 323.232 199.344 323.424 199.872C328.512 199.128 332.112 197.784 334.704 195.624C337.584 197.064 340.176 198.6 341.88 199.944L343.224 198.312C341.496 197.016 338.928 195.576 336.12 194.232C338.04 192.024 339.24 189.144 340.008 185.424H343.8ZM367.656 183.744V182.04H357.816V177.864H356.016V182.04H346.344V183.744H353.712C353.424 189.264 352.728 195.48 346.104 198.456C346.56 198.816 347.112 199.464 347.376 199.92C352.248 197.568 354.168 193.608 355.008 189.36H362.928C362.52 194.904 362.064 197.256 361.344 197.88C361.104 198.12 360.768 198.144 360.216 198.144C359.616 198.144 357.912 198.144 356.208 197.976C356.544 198.456 356.784 199.2 356.832 199.704C358.44 199.8 360 199.824 360.84 199.776C361.752 199.728 362.328 199.56 362.88 198.984C363.816 198.024 364.296 195.384 364.776 188.544C364.8 188.256 364.824 187.68 364.824 187.68H355.272C355.464 186.36 355.56 185.04 355.632 183.744H367.656ZM380.496 180.432H376.44V177.984H374.736V180.432H370.536V181.944H380.496V180.432ZM372 182.352C372.48 183.48 372.84 184.992 372.936 185.976L374.424 185.592C374.328 184.632 373.896 183.144 373.368 182.04L372 182.352ZM377.736 181.992C377.52 183.072 377.016 184.632 376.68 185.616L378.048 185.976C378.456 185.04 378.936 183.624 379.344 182.376L377.736 181.992ZM380.568 195.456C379.992 194.904 377.496 192.816 376.488 192.048V191.472H380.568V189.96H376.488V187.512H380.76V185.976H370.056V187.512H374.784V189.96H370.296V191.472H374.328C373.248 193.584 371.472 195.696 369.816 196.824C370.2 197.16 370.632 197.76 370.872 198.192C372.24 197.112 373.68 195.408 374.784 193.632V199.8H376.488V193.752C377.568 194.784 378.912 196.104 379.464 196.776L380.568 195.456ZM383.208 188.4H389.208V190.896H383.208V188.4ZM383.208 184.44H389.208V186.936H383.208V184.44ZM383.208 180.552H389.208V183.024H383.208V180.552ZM388.824 197.952C388.392 197.952 388.32 197.88 388.32 197.328V192.504H390.888V178.968H381.576V192.504H383.136C382.848 195.504 382.056 197.472 378.888 198.576C379.248 198.888 379.704 199.512 379.896 199.896C383.448 198.504 384.456 196.128 384.792 192.504H386.688V197.352C386.688 199.008 387.048 199.536 388.584 199.536H390.312C391.632 199.536 392.088 198.744 392.184 195.456C391.752 195.336 391.056 195.072 390.72 194.808C390.672 197.616 390.6 197.952 390.12 197.952H388.824ZM410.424 188.52C409.584 190.8 408.24 192.648 406.608 194.16C404.784 192.624 403.392 190.728 402.432 188.52H410.424ZM411.552 186.72L411.264 186.816H401.856C402.12 185.712 402.288 184.632 402.432 183.648H415.32V181.92H402.648C402.864 180.096 402.912 178.656 402.96 177.912H401.112C401.112 178.56 401.064 180.024 400.848 181.92H394.752V183.648H400.632C399.96 188.256 398.28 194.4 393.96 197.856C394.512 198.192 395.136 198.624 395.496 199.08C398.352 196.632 400.104 193.056 401.16 189.528C402.192 191.76 403.56 193.704 405.264 195.24C403.248 196.704 400.92 197.736 398.448 198.36C398.832 198.696 399.24 199.392 399.456 199.848C402.096 199.104 404.544 198 406.68 196.392C408.888 198.024 411.552 199.176 414.792 199.824C415.008 199.344 415.512 198.6 415.92 198.24C412.824 197.664 410.208 196.68 408.048 195.24C410.184 193.272 411.84 190.656 412.776 187.272L411.552 186.72ZM431.32 189.445L432.188 180.938H440.93V182.941H434.027L433.512 187.594C434.348 187.102 435.297 186.855 436.359 186.855C437.914 186.855 439.148 187.371 440.062 188.402C440.977 189.426 441.434 190.812 441.434 192.562C441.434 194.32 440.957 195.707 440.004 196.723C439.059 197.73 437.734 198.234 436.031 198.234C434.523 198.234 433.293 197.816 432.34 196.98C431.387 196.145 430.844 194.988 430.711 193.512H432.762C432.895 194.488 433.242 195.227 433.805 195.727C434.367 196.219 435.109 196.465 436.031 196.465C437.039 196.465 437.828 196.121 438.398 195.434C438.977 194.746 439.266 193.797 439.266 192.586C439.266 191.445 438.953 190.531 438.328 189.844C437.711 189.148 436.887 188.801 435.855 188.801C434.91 188.801 434.168 189.008 433.629 189.422L433.055 189.891L431.32 189.445ZM444.797 189.445L445.664 180.938H454.406V182.941H447.504L446.988 187.594C447.824 187.102 448.773 186.855 449.836 186.855C451.391 186.855 452.625 187.371 453.539 188.402C454.453 189.426 454.91 190.812 454.91 192.562C454.91 194.32 454.434 195.707 453.48 196.723C452.535 197.73 451.211 198.234 449.508 198.234C448 198.234 446.77 197.816 445.816 196.98C444.863 196.145 444.32 194.988 444.188 193.512H446.238C446.371 194.488 446.719 195.227 447.281 195.727C447.844 196.219 448.586 196.465 449.508 196.465C450.516 196.465 451.305 196.121 451.875 195.434C452.453 194.746 452.742 193.797 452.742 192.586C452.742 191.445 452.43 190.531 451.805 189.844C451.188 189.148 450.363 188.801 449.332 188.801C448.387 188.801 447.645 189.008 447.105 189.422L446.531 189.891L444.797 189.445ZM466.635 178.656C466.467 181.824 466.467 193.272 456.747 198.24C457.299 198.6 457.875 199.176 458.187 199.608C464.259 196.32 466.731 190.536 467.787 185.736C468.939 190.536 471.579 196.68 477.771 199.608C478.035 199.128 478.587 198.528 479.091 198.144C470.067 194.016 468.771 182.928 468.555 179.76C468.579 179.352 468.579 178.968 468.603 178.656H466.635Z" fill="#932639"/>
<path d="M856.784 109.632V108.072H862.064V109.632H856.784ZM856.784 105.504H862.064V107.016H856.784V105.504ZM869.216 105.504V107.016H863.768V105.504H869.216ZM869.216 109.632H863.768V108.072H869.216V109.632ZM863.768 110.88H870.92V104.256H863.768V102.96H870.488V101.712H863.768V100.296H871.64V102.744H873.296V98.952H852.848V102.744H854.456V100.296H862.064V101.712H855.56V102.96H862.064V104.256H855.152V110.88H862.064V112.176H852.44V113.592H862.064V115.872H863.768V113.592H873.536V112.176H863.768V110.88ZM867.824 95.544V93.936H866.048V95.544H859.832V93.936H858.08V95.544H852.464V97.008H858.08V98.448H859.832V97.008H866.048V98.448H867.824V97.008H873.584V95.544H867.824ZM893.624 108.888C892.4 109.728 890.936 110.592 889.688 111.216C888.8 110.544 888.08 109.776 887.504 108.888H893.624ZM881.96 105.312H892.064V107.424H881.96V105.312ZM881.96 101.928H892.064V103.944H881.96V101.928ZM887.84 100.464V98.088H886.04V100.464H881.096C883.472 98.904 885.584 97.104 886.904 95.496C888.368 97.2 890.648 98.976 893.024 100.464H887.84ZM895.136 107.808C894.752 108.096 894.296 108.432 893.816 108.768V100.944C894.896 101.568 895.976 102.144 897.008 102.6C897.32 102.12 897.752 101.472 898.16 101.04C894.44 99.648 890.288 96.888 887.672 93.888H885.92C884 96.552 879.992 99.552 875.936 101.304C876.32 101.688 876.776 102.336 876.992 102.744C878.072 102.24 879.176 101.664 880.208 101.016V113.712C879.2 113.808 878.288 113.88 877.496 113.952L877.76 115.608C880.496 115.368 884.408 114.984 888.152 114.576L888.128 112.992L881.96 113.568V108.888H885.704C887.744 112.704 891.56 114.936 896.72 115.824C896.96 115.368 897.416 114.648 897.8 114.288C895.16 113.904 892.856 113.184 891.008 112.104C892.808 111.192 894.872 109.992 896.48 108.84L895.136 107.808ZM925.402 114H923.223V99.5508L918.852 101.156V99.1875L925.062 96.8555H925.402V114ZM932.75 105.445L933.617 96.9375H942.359V98.9414H935.457L934.941 103.594C935.777 103.102 936.727 102.855 937.789 102.855C939.344 102.855 940.578 103.371 941.492 104.402C942.406 105.426 942.863 106.812 942.863 108.562C942.863 110.32 942.387 111.707 941.434 112.723C940.488 113.73 939.164 114.234 937.461 114.234C935.953 114.234 934.723 113.816 933.77 112.98C932.816 112.145 932.273 110.988 932.141 109.512H934.191C934.324 110.488 934.672 111.227 935.234 111.727C935.797 112.219 936.539 112.465 937.461 112.465C938.469 112.465 939.258 112.121 939.828 111.434C940.406 110.746 940.695 109.797 940.695 108.586C940.695 107.445 940.383 106.531 939.758 105.844C939.141 105.148 938.316 104.801 937.285 104.801C936.34 104.801 935.598 105.008 935.059 105.422L934.484 105.891L932.75 105.445ZM954.589 94.656C954.421 97.824 954.421 109.272 944.701 114.24C945.253 114.6 945.829 115.176 946.141 115.608C952.213 112.32 954.685 106.536 955.741 101.736C956.893 106.536 959.533 112.68 965.725 115.608C965.989 115.128 966.541 114.528 967.045 114.144C958.021 110.016 956.725 98.928 956.509 95.76C956.533 95.352 956.533 94.968 956.557 94.656H954.589Z" fill="#932639"/>
<path d="M858.032 138.832C856.568 140.128 854.264 141.4 852.152 142.24C852.56 142.48 853.208 143.104 853.52 143.44C855.56 142.48 858.032 140.968 859.664 139.456L858.032 138.832ZM873.704 138.16C872.456 136.864 869.936 135.16 867.872 134.032L866.648 134.968C867.464 135.448 868.352 136 869.192 136.6C866.384 136.648 863.528 136.696 860.888 136.744C863.072 135.4 865.496 133.696 867.368 132.16L865.784 131.272C864.488 132.472 862.592 133.936 860.72 135.208C860.144 134.8 859.448 134.368 858.728 133.936C859.904 133.096 861.296 131.944 862.472 130.888H873.512V129.472H863.84V127.936H871.04V126.568H863.84V125.032H872.432V123.664H863.84V121.888H862.088V123.664H853.832V125.032H862.088V126.568H855.152V127.936H862.088V129.472H852.56V130.888H860.12C859.328 131.68 858.344 132.568 857.48 133.216C856.928 132.952 856.4 132.688 855.92 132.448L854.768 133.456C856.256 134.2 858.056 135.256 859.256 136.144C858.92 136.384 858.56 136.576 858.224 136.792C856.112 136.816 854.192 136.84 852.632 136.84L852.776 138.352C855.296 138.304 858.56 138.256 862.088 138.16V143.8H863.816V138.112C866.168 138.064 868.592 137.992 870.968 137.92C871.544 138.376 872.024 138.832 872.384 139.216L873.704 138.16ZM866.192 139.768C868.256 140.728 870.776 142.24 872.024 143.32L873.416 142.264C872.096 141.16 869.504 139.696 867.512 138.832L866.192 139.768ZM893.624 136.888C892.4 137.728 890.936 138.592 889.688 139.216C888.8 138.544 888.08 137.776 887.504 136.888H893.624ZM881.96 133.312H892.064V135.424H881.96V133.312ZM881.96 129.928H892.064V131.944H881.96V129.928ZM887.84 128.464V126.088H886.04V128.464H881.096C883.472 126.904 885.584 125.104 886.904 123.496C888.368 125.2 890.648 126.976 893.024 128.464H887.84ZM895.136 135.808C894.752 136.096 894.296 136.432 893.816 136.768V128.944C894.896 129.568 895.976 130.144 897.008 130.6C897.32 130.12 897.752 129.472 898.16 129.04C894.44 127.648 890.288 124.888 887.672 121.888H885.92C884 124.552 879.992 127.552 875.936 129.304C876.32 129.688 876.776 130.336 876.992 130.744C878.072 130.24 879.176 129.664 880.208 129.016V141.712C879.2 141.808 878.288 141.88 877.496 141.952L877.76 143.608C880.496 143.368 884.408 142.984 888.152 142.576L888.128 140.992L881.96 141.568V136.888H885.704C887.744 140.704 891.56 142.936 896.72 143.824C896.96 143.368 897.416 142.648 897.8 142.288C895.16 141.904 892.856 141.184 891.008 140.104C892.808 139.192 894.872 137.992 896.48 136.84L895.136 135.808ZM925.402 142H923.223V127.551L918.852 129.156V127.188L925.062 124.855H925.402V142ZM942.453 134.723C942.453 137.262 942.02 139.148 941.152 140.383C940.285 141.617 938.93 142.234 937.086 142.234C935.266 142.234 933.918 141.633 933.043 140.43C932.168 139.219 931.715 137.414 931.684 135.016V132.121C931.684 129.613 932.117 127.75 932.984 126.531C933.852 125.312 935.211 124.703 937.062 124.703C938.898 124.703 940.25 125.293 941.117 126.473C941.984 127.645 942.43 129.457 942.453 131.91V134.723ZM940.285 131.758C940.285 129.922 940.027 128.586 939.512 127.75C938.996 126.906 938.18 126.484 937.062 126.484C935.953 126.484 935.145 126.902 934.637 127.738C934.129 128.574 933.867 129.859 933.852 131.594V135.062C933.852 136.906 934.117 138.27 934.648 139.152C935.188 140.027 936 140.465 937.086 140.465C938.156 140.465 938.949 140.051 939.465 139.223C939.988 138.395 940.262 137.09 940.285 135.309V131.758ZM954.589 122.656C954.421 125.824 954.421 137.272 944.701 142.24C945.253 142.6 945.829 143.176 946.141 143.608C952.213 140.32 954.685 134.536 955.741 129.736C956.893 134.536 959.533 140.68 965.725 143.608C965.989 143.128 966.541 142.528 967.045 142.144C958.021 138.016 956.725 126.928 956.509 123.76C956.533 123.352 956.533 122.968 956.557 122.656H954.589Z" fill="#BC8129"/>
<path d="M246.192 224.485C264.722 206.094 277.342 182.663 282.454 157.154C287.567 131.646 284.943 105.206 274.914 81.1771C264.885 57.1487 247.903 36.6112 226.113 22.1618C204.324 7.71234 178.706 1.96357e-06 152.5 0L152.5 29.9321C172.741 29.9321 192.527 35.8889 209.357 47.0494C226.187 58.2098 239.304 74.0725 247.05 92.6316C254.796 111.191 256.823 131.613 252.874 151.315C248.925 171.017 239.178 189.115 224.866 203.319L246.192 224.485Z" fill="#BC8129"/>
<path d="M137 0C114.47 -2.68665e-07 92.2881 5.55632 72.4186 16.1768C52.5492 26.7973 35.6055 42.154 23.0887 60.8869C10.5718 79.6197 2.868 101.15 0.659693 123.572C-1.54861 145.993 1.80673 168.613 10.4285 189.428C19.0503 210.242 32.6724 228.61 50.0881 242.902C67.5039 257.195 88.1757 266.972 110.273 271.368C132.369 275.763 155.209 274.641 176.769 268.101C198.329 261.561 217.943 249.805 233.874 233.874L211.823 211.823C199.518 224.128 184.369 233.208 167.717 238.26C151.065 243.311 133.423 244.178 116.356 240.783C99.2891 237.388 83.3226 229.836 69.871 218.797C56.4195 207.757 45.898 193.571 39.2388 177.494C32.5795 161.417 29.9879 143.946 31.6935 126.628C33.3992 109.31 39.3494 92.6806 49.0172 78.2118C58.685 63.7429 71.7719 51.8816 87.1187 43.6786C102.465 35.4756 119.598 31.184 137 31.184L137 0Z" fill="#932639"/>
<path d="M46.4141 144.445L47.2812 135.938H56.0234V137.941H49.1211L48.6055 142.594C49.4414 142.102 50.3906 141.855 51.4531 141.855C53.0078 141.855 54.2422 142.371 55.1562 143.402C56.0703 144.426 56.5273 145.812 56.5273 147.562C56.5273 149.32 56.0508 150.707 55.0977 151.723C54.1523 152.73 52.8281 153.234 51.125 153.234C49.6172 153.234 48.3867 152.816 47.4336 151.98C46.4805 151.145 45.9375 149.988 45.8047 148.512H47.8555C47.9883 149.488 48.3359 150.227 48.8984 150.727C49.4609 151.219 50.2031 151.465 51.125 151.465C52.1328 151.465 52.9219 151.121 53.4922 150.434C54.0703 149.746 54.3594 148.797 54.3594 147.586C54.3594 146.445 54.0469 145.531 53.4219 144.844C52.8047 144.148 51.9805 143.801 50.9492 143.801C50.0039 143.801 49.2617 144.008 48.7227 144.422L48.1484 144.891L46.4141 144.445ZM59.8906 144.445L60.7578 135.938H69.5V137.941H62.5977L62.082 142.594C62.918 142.102 63.8672 141.855 64.9297 141.855C66.4844 141.855 67.7188 142.371 68.6328 143.402C69.5469 144.426 70.0039 145.812 70.0039 147.562C70.0039 149.32 69.5273 150.707 68.5742 151.723C67.6289 152.73 66.3047 153.234 64.6016 153.234C63.0938 153.234 61.8633 152.816 60.9102 151.98C59.957 151.145 59.4141 149.988 59.2812 148.512H61.332C61.4648 149.488 61.8125 150.227 62.375 150.727C62.9375 151.219 63.6797 151.465 64.6016 151.465C65.6094 151.465 66.3984 151.121 66.9688 150.434C67.5469 149.746 67.8359 148.797 67.8359 147.586C67.8359 146.445 67.5234 145.531 66.8984 144.844C66.2812 144.148 65.457 143.801 64.4258 143.801C63.4805 143.801 62.7383 144.008 62.1992 144.422L61.625 144.891L59.8906 144.445ZM72.1836 139.219C72.1836 138.195 72.5078 137.352 73.1562 136.688C73.8125 136.023 74.6523 135.691 75.6758 135.691C76.7148 135.691 77.5547 136.027 78.1953 136.699C78.8438 137.363 79.168 138.227 79.168 139.289V140.121C79.168 141.152 78.8398 141.996 78.1836 142.652C77.5352 143.301 76.707 143.625 75.6992 143.625C74.6836 143.625 73.8438 143.301 73.1797 142.652C72.5156 141.996 72.1836 141.125 72.1836 140.039V139.219ZM73.8008 140.121C73.8008 140.73 73.9727 141.234 74.3164 141.633C74.6602 142.023 75.1211 142.219 75.6992 142.219C76.2539 142.219 76.6992 142.027 77.0352 141.645C77.3789 141.262 77.5508 140.738 77.5508 140.074V139.219C77.5508 138.609 77.3828 138.105 77.0469 137.707C76.7109 137.309 76.2539 137.109 75.6758 137.109C75.0977 137.109 74.6406 137.309 74.3047 137.707C73.9688 138.105 73.8008 138.625 73.8008 139.266V140.121ZM80.4922 148.816C80.4922 147.793 80.8164 146.953 81.4648 146.297C82.1211 145.633 82.9609 145.301 83.9844 145.301C85.0078 145.301 85.8477 145.629 86.5039 146.285C87.1602 146.941 87.4883 147.812 87.4883 148.898V149.73C87.4883 150.754 87.1602 151.598 86.5039 152.262C85.8555 152.918 85.0234 153.246 84.0078 153.246C82.9922 153.246 82.1523 152.922 81.4883 152.273C80.8242 151.617 80.4922 150.746 80.4922 149.66V148.816ZM82.1094 149.73C82.1094 150.348 82.2812 150.855 82.625 151.254C82.9688 151.645 83.4297 151.84 84.0078 151.84C84.5703 151.84 85.0195 151.648 85.3555 151.266C85.6914 150.875 85.8594 150.348 85.8594 149.684V148.816C85.8594 148.199 85.6875 147.695 85.3438 147.305C85.0078 146.914 84.5547 146.719 83.9844 146.719C83.4297 146.719 82.9766 146.914 82.625 147.305C82.2812 147.688 82.1094 148.207 82.1094 148.863V149.73ZM76.1914 151.711L74.9609 150.938L83.293 137.602L84.5234 138.375L76.1914 151.711Z" fill="black"/>
<path d="M184.57 95.2695H186.938V97.0391H184.57V101H182.391V97.0391H174.621V95.7617L182.262 83.9375H184.57V95.2695ZM177.082 95.2695H182.391V86.9023L182.133 87.3711L177.082 95.2695ZM189.891 92.4453L190.758 83.9375H199.5V85.9414H192.598L192.082 90.5938C192.918 90.1016 193.867 89.8555 194.93 89.8555C196.484 89.8555 197.719 90.3711 198.633 91.4023C199.547 92.4258 200.004 93.8125 200.004 95.5625C200.004 97.3203 199.527 98.707 198.574 99.7227C197.629 100.73 196.305 101.234 194.602 101.234C193.094 101.234 191.863 100.816 190.91 99.9805C189.957 99.1445 189.414 97.9883 189.281 96.5117H191.332C191.465 97.4883 191.812 98.2266 192.375 98.7266C192.938 99.2188 193.68 99.4648 194.602 99.4648C195.609 99.4648 196.398 99.1211 196.969 98.4336C197.547 97.7461 197.836 96.7969 197.836 95.5859C197.836 94.4453 197.523 93.5312 196.898 92.8438C196.281 92.1484 195.457 91.8008 194.426 91.8008C193.48 91.8008 192.738 92.0078 192.199 92.4219L191.625 92.8906L189.891 92.4453ZM202.184 87.2188C202.184 86.1953 202.508 85.3516 203.156 84.6875C203.812 84.0234 204.652 83.6914 205.676 83.6914C206.715 83.6914 207.555 84.0273 208.195 84.6992C208.844 85.3633 209.168 86.2266 209.168 87.2891V88.1211C209.168 89.1523 208.84 89.9961 208.184 90.6523C207.535 91.3008 206.707 91.625 205.699 91.625C204.684 91.625 203.844 91.3008 203.18 90.6523C202.516 89.9961 202.184 89.125 202.184 88.0391V87.2188ZM203.801 88.1211C203.801 88.7305 203.973 89.2344 204.316 89.6328C204.66 90.0234 205.121 90.2188 205.699 90.2188C206.254 90.2188 206.699 90.0273 207.035 89.6445C207.379 89.2617 207.551 88.7383 207.551 88.0742V87.2188C207.551 86.6094 207.383 86.1055 207.047 85.707C206.711 85.3086 206.254 85.1094 205.676 85.1094C205.098 85.1094 204.641 85.3086 204.305 85.707C203.969 86.1055 203.801 86.625 203.801 87.2656V88.1211ZM210.492 96.8164C210.492 95.793 210.816 94.9531 211.465 94.2969C212.121 93.6328 212.961 93.3008 213.984 93.3008C215.008 93.3008 215.848 93.6289 216.504 94.2852C217.16 94.9414 217.488 95.8125 217.488 96.8984V97.7305C217.488 98.7539 217.16 99.5977 216.504 100.262C215.855 100.918 215.023 101.246 214.008 101.246C212.992 101.246 212.152 100.922 211.488 100.273C210.824 99.6172 210.492 98.7461 210.492 97.6602V96.8164ZM212.109 97.7305C212.109 98.3477 212.281 98.8555 212.625 99.2539C212.969 99.6445 213.43 99.8398 214.008 99.8398C214.57 99.8398 215.02 99.6484 215.355 99.2656C215.691 98.875 215.859 98.3477 215.859 97.6836V96.8164C215.859 96.1992 215.688 95.6953 215.344 95.3047C215.008 94.9141 214.555 94.7188 213.984 94.7188C213.43 94.7188 212.977 94.9141 212.625 95.3047C212.281 95.6875 212.109 96.207 212.109 96.8633V97.7305ZM206.191 99.7109L204.961 98.9375L213.293 85.6016L214.523 86.375L206.191 99.7109Z" fill="black"/>
<path d="M776.192 224.485C794.722 206.094 807.342 182.663 812.454 157.154C817.567 131.646 814.943 105.206 804.914 81.1771C794.885 57.1487 777.903 36.6112 756.113 22.1618C734.324 7.71234 708.706 1.96357e-06 682.5 0L682.5 29.9321C702.741 29.9321 722.527 35.8889 739.357 47.0494C756.187 58.2098 769.304 74.0725 777.05 92.6316C784.796 111.191 786.823 131.613 782.874 151.315C778.925 171.017 769.178 189.115 754.866 203.319L776.192 224.485Z" fill="#BC8129"/>
<path d="M667 0C644.47 -2.68665e-07 622.288 5.55632 602.419 16.1768C582.549 26.7973 565.606 42.154 553.089 60.8869C540.572 79.6197 532.868 101.15 530.66 123.572C528.451 145.993 531.807 168.613 540.429 189.428C549.05 210.242 562.672 228.61 580.088 242.902C597.504 257.195 618.176 266.972 640.273 271.368C662.369 275.763 685.209 274.641 706.769 268.101C728.329 261.561 747.943 249.805 763.874 233.874L741.823 211.823C729.518 224.128 714.369 233.208 697.717 238.26C681.065 243.311 663.423 244.178 646.356 240.783C629.289 237.388 613.323 229.836 599.871 218.797C586.419 207.757 575.898 193.571 569.239 177.494C562.579 161.417 559.988 143.946 561.694 126.628C563.399 109.31 569.349 92.6806 579.017 78.2118C588.685 63.7429 601.772 51.8816 617.119 43.6786C632.465 35.4756 649.598 31.184 667 31.184L667 0Z" fill="#932639"/>
<path d="M583.926 135.926V137.766H583.527C581.84 137.797 580.496 138.297 579.496 139.266C578.496 140.234 577.918 141.598 577.762 143.355C578.66 142.324 579.887 141.809 581.441 141.809C582.926 141.809 584.109 142.332 584.992 143.379C585.883 144.426 586.328 145.777 586.328 147.434C586.328 149.191 585.848 150.598 584.887 151.652C583.934 152.707 582.652 153.234 581.043 153.234C579.41 153.234 578.086 152.609 577.07 151.359C576.055 150.102 575.547 148.484 575.547 146.508V145.676C575.547 142.535 576.215 140.137 577.551 138.48C578.895 136.816 580.891 135.965 583.539 135.926H583.926ZM581.078 143.613C580.336 143.613 579.652 143.836 579.027 144.281C578.402 144.727 577.969 145.285 577.727 145.957V146.754C577.727 148.16 578.043 149.293 578.676 150.152C579.309 151.012 580.098 151.441 581.043 151.441C582.02 151.441 582.785 151.082 583.34 150.363C583.902 149.645 584.184 148.703 584.184 147.539C584.184 146.367 583.898 145.422 583.328 144.703C582.766 143.977 582.016 143.613 581.078 143.613ZM599.594 145.723C599.594 148.262 599.16 150.148 598.293 151.383C597.426 152.617 596.07 153.234 594.227 153.234C592.406 153.234 591.059 152.633 590.184 151.43C589.309 150.219 588.855 148.414 588.824 146.016V143.121C588.824 140.613 589.258 138.75 590.125 137.531C590.992 136.312 592.352 135.703 594.203 135.703C596.039 135.703 597.391 136.293 598.258 137.473C599.125 138.645 599.57 140.457 599.594 142.91V145.723ZM597.426 142.758C597.426 140.922 597.168 139.586 596.652 138.75C596.137 137.906 595.32 137.484 594.203 137.484C593.094 137.484 592.285 137.902 591.777 138.738C591.27 139.574 591.008 140.859 590.992 142.594V146.062C590.992 147.906 591.258 149.27 591.789 150.152C592.328 151.027 593.141 151.465 594.227 151.465C595.297 151.465 596.09 151.051 596.605 150.223C597.129 149.395 597.402 148.09 597.426 146.309V142.758ZM602.184 139.219C602.184 138.195 602.508 137.352 603.156 136.688C603.812 136.023 604.652 135.691 605.676 135.691C606.715 135.691 607.555 136.027 608.195 136.699C608.844 137.363 609.168 138.227 609.168 139.289V140.121C609.168 141.152 608.84 141.996 608.184 142.652C607.535 143.301 606.707 143.625 605.699 143.625C604.684 143.625 603.844 143.301 603.18 142.652C602.516 141.996 602.184 141.125 602.184 140.039V139.219ZM603.801 140.121C603.801 140.73 603.973 141.234 604.316 141.633C604.66 142.023 605.121 142.219 605.699 142.219C606.254 142.219 606.699 142.027 607.035 141.645C607.379 141.262 607.551 140.738 607.551 140.074V139.219C607.551 138.609 607.383 138.105 607.047 137.707C606.711 137.309 606.254 137.109 605.676 137.109C605.098 137.109 604.641 137.309 604.305 137.707C603.969 138.105 603.801 138.625 603.801 139.266V140.121ZM610.492 148.816C610.492 147.793 610.816 146.953 611.465 146.297C612.121 145.633 612.961 145.301 613.984 145.301C615.008 145.301 615.848 145.629 616.504 146.285C617.16 146.941 617.488 147.812 617.488 148.898V149.73C617.488 150.754 617.16 151.598 616.504 152.262C615.855 152.918 615.023 153.246 614.008 153.246C612.992 153.246 612.152 152.922 611.488 152.273C610.824 151.617 610.492 150.746 610.492 149.66V148.816ZM612.109 149.73C612.109 150.348 612.281 150.855 612.625 151.254C612.969 151.645 613.43 151.84 614.008 151.84C614.57 151.84 615.02 151.648 615.355 151.266C615.691 150.875 615.859 150.348 615.859 149.684V148.816C615.859 148.199 615.688 147.695 615.344 147.305C615.008 146.914 614.555 146.719 613.984 146.719C613.43 146.719 612.977 146.914 612.625 147.305C612.281 147.688 612.109 148.207 612.109 148.863V149.73ZM606.191 151.711L604.961 150.938L613.293 137.602L614.523 138.375L606.191 151.711Z" fill="black"/>
<path d="M714.57 95.2695H716.938V97.0391H714.57V101H712.391V97.0391H704.621V95.7617L712.262 83.9375H714.57V95.2695ZM707.082 95.2695H712.391V86.9023L712.133 87.3711L707.082 95.2695ZM729.594 93.7227C729.594 96.2617 729.16 98.1484 728.293 99.3828C727.426 100.617 726.07 101.234 724.227 101.234C722.406 101.234 721.059 100.633 720.184 99.4297C719.309 98.2188 718.855 96.4141 718.824 94.0156V91.1211C718.824 88.6133 719.258 86.75 720.125 85.5312C720.992 84.3125 722.352 83.7031 724.203 83.7031C726.039 83.7031 727.391 84.293 728.258 85.4727C729.125 86.6445 729.57 88.457 729.594 90.9102V93.7227ZM727.426 90.7578C727.426 88.9219 727.168 87.5859 726.652 86.75C726.137 85.9062 725.32 85.4844 724.203 85.4844C723.094 85.4844 722.285 85.9023 721.777 86.7383C721.27 87.5742 721.008 88.8594 720.992 90.5938V94.0625C720.992 95.9062 721.258 97.2695 721.789 98.1523C722.328 99.0273 723.141 99.4648 724.227 99.4648C725.297 99.4648 726.09 99.0508 726.605 98.2227C727.129 97.3945 727.402 96.0898 727.426 94.3086V90.7578ZM732.184 87.2188C732.184 86.1953 732.508 85.3516 733.156 84.6875C733.812 84.0234 734.652 83.6914 735.676 83.6914C736.715 83.6914 737.555 84.0273 738.195 84.6992C738.844 85.3633 739.168 86.2266 739.168 87.2891V88.1211C739.168 89.1523 738.84 89.9961 738.184 90.6523C737.535 91.3008 736.707 91.625 735.699 91.625C734.684 91.625 733.844 91.3008 733.18 90.6523C732.516 89.9961 732.184 89.125 732.184 88.0391V87.2188ZM733.801 88.1211C733.801 88.7305 733.973 89.2344 734.316 89.6328C734.66 90.0234 735.121 90.2188 735.699 90.2188C736.254 90.2188 736.699 90.0273 737.035 89.6445C737.379 89.2617 737.551 88.7383 737.551 88.0742V87.2188C737.551 86.6094 737.383 86.1055 737.047 85.707C736.711 85.3086 736.254 85.1094 735.676 85.1094C735.098 85.1094 734.641 85.3086 734.305 85.707C733.969 86.1055 733.801 86.625 733.801 87.2656V88.1211ZM740.492 96.8164C740.492 95.793 740.816 94.9531 741.465 94.2969C742.121 93.6328 742.961 93.3008 743.984 93.3008C745.008 93.3008 745.848 93.6289 746.504 94.2852C747.16 94.9414 747.488 95.8125 747.488 96.8984V97.7305C747.488 98.7539 747.16 99.5977 746.504 100.262C745.855 100.918 745.023 101.246 744.008 101.246C742.992 101.246 742.152 100.922 741.488 100.273C740.824 99.6172 740.492 98.7461 740.492 97.6602V96.8164ZM742.109 97.7305C742.109 98.3477 742.281 98.8555 742.625 99.2539C742.969 99.6445 743.43 99.8398 744.008 99.8398C744.57 99.8398 745.02 99.6484 745.355 99.2656C745.691 98.875 745.859 98.3477 745.859 97.6836V96.8164C745.859 96.1992 745.688 95.6953 745.344 95.3047C745.008 94.9141 744.555 94.7188 743.984 94.7188C743.43 94.7188 742.977 94.9141 742.625 95.3047C742.281 95.6875 742.109 96.207 742.109 96.8633V97.7305ZM736.191 99.7109L734.961 98.9375L743.293 85.6016L744.523 86.375L736.191 99.7109Z" fill="black"/>
</svg>
