<svg width="122" height="122" viewBox="0 0 122 122" fill="none" xmlns="http://www.w3.org/2000/svg">
<circle cx="61" cy="61" r="61" fill="#932639"/>
<path fill-rule="evenodd" clip-rule="evenodd" d="M60.9999 82.6756C56.3866 86.2954 50.6901 88.2588 44.8262 88.25C30.3287 88.25 18.5762 76.4975 18.5762 62C18.5762 47.5025 30.3287 35.75 44.8262 35.75C50.6901 35.7412 56.3866 37.7046 60.9999 41.3244C65.6137 37.7042 71.311 35.7408 77.1755 35.75C91.673 35.75 103.426 47.5025 103.426 62C103.426 76.4975 91.673 88.25 77.1755 88.25C71.311 88.2592 65.6137 86.2958 60.9999 82.6756V82.6756ZM59.1849 81.1156C55.1874 84.1231 50.2149 85.9062 44.8262 85.9062C31.6224 85.9062 20.9199 75.2037 20.9199 62C20.9199 48.7963 31.6224 38.0938 44.8262 38.0938C58.0299 38.0938 68.7324 48.7963 68.7324 62C68.7377 65.5997 67.9267 69.1538 66.3605 72.395C63.5199 69.44 62.1699 66.02 62.1699 62C62.1699 57.4002 60.3426 52.9887 57.0901 49.7361C53.8375 46.4835 49.426 44.6563 44.8262 44.6563C40.2263 44.6563 35.8149 46.4835 32.5623 49.7361C29.3097 52.9887 27.4824 57.4002 27.4824 62C27.4824 66.5998 29.3097 71.0113 32.5623 74.2639C35.8149 77.5165 40.2263 79.3437 44.8262 79.3437C48.4799 79.3494 52.0413 78.1959 54.998 76.0494C56.177 77.906 57.5836 79.608 59.1849 81.1156ZM53.8243 74.0019C51.9134 70.2902 50.9195 66.1747 50.9255 62C50.9195 57.8253 51.9134 53.7098 53.8243 49.9981C51.3174 48.1156 48.2012 47 44.8262 47C40.8479 47 37.0326 48.5804 34.2196 51.3934C31.4065 54.2064 29.8262 58.0218 29.8262 62C29.8262 65.9782 31.4065 69.7936 34.2196 72.6066C37.0326 75.4196 40.8479 77 44.8262 77C48.2012 77 51.3174 75.8844 53.8243 74.0019ZM55.6412 51.605C54.075 54.8462 53.2641 58.4003 53.2693 62C53.2693 75.2037 63.9718 85.9062 77.1755 85.9062C90.3793 85.9062 101.082 75.2037 101.082 62C101.082 48.7963 90.3793 38.0938 77.1755 38.0938C71.7868 38.0938 66.8143 39.8769 62.8168 42.8844C64.4181 44.392 65.8247 46.094 67.0037 47.9506C69.9604 45.8041 73.5218 44.6506 77.1755 44.6563C81.7754 44.6563 86.1868 46.4835 89.4394 49.7361C92.692 52.9887 94.5193 57.4002 94.5193 62C94.5193 66.5998 92.692 71.0113 89.4394 74.2639C86.1868 77.5165 81.7754 79.3437 77.1755 79.3437C72.5757 79.3437 68.1642 77.5165 64.9117 74.2639C61.6591 71.0113 59.8318 66.5998 59.8318 62C59.8318 58.1525 58.3093 54.38 55.6412 51.605V51.605ZM68.1774 49.9962C70.0886 53.7085 71.0826 57.8247 71.0762 62C71.0823 66.1747 70.0883 70.2902 68.1774 74.0019C70.6843 75.8844 73.7987 77 77.1755 77C81.1538 77 84.9691 75.4196 87.7821 72.6066C90.5952 69.7936 92.1755 65.9782 92.1755 62C92.1755 58.0218 90.5952 54.2064 87.7821 51.3934C84.9691 48.5804 81.1538 47 77.1755 47C73.8005 47 70.6843 48.1156 68.1774 49.9981V49.9962Z" fill="white"/>
</svg>
