<svg width="122" height="122" viewBox="0 0 122 122" fill="none" xmlns="http://www.w3.org/2000/svg">
<circle cx="61" cy="61" r="61" fill="#932639"/>
<path fill-rule="evenodd" clip-rule="evenodd" d="M79.5 76.9C77.2833 76.9 75.3 77.775 73.7833 79.1458L52.9875 67.0417C53.1333 66.3708 53.25 65.7 53.25 65C53.25 64.3 53.1333 63.6292 52.9875 62.9583L73.55 50.9708C75.125 52.4292 77.1958 53.3333 79.5 53.3333C84.3417 53.3333 88.25 49.425 88.25 44.5833C88.25 39.7417 84.3417 35.8333 79.5 35.8333C74.6583 35.8333 70.75 39.7417 70.75 44.5833C70.75 45.2833 70.8667 45.9542 71.0125 46.625L50.45 58.6125C48.875 57.1542 46.8042 56.25 44.5 56.25C39.6583 56.25 35.75 60.1583 35.75 65C35.75 69.8417 39.6583 73.75 44.5 73.75C46.8042 73.75 48.875 72.8458 50.45 71.3875L71.2167 83.5208C71.0708 84.1333 70.9833 84.775 70.9833 85.4167C70.9833 90.1125 74.8042 93.9333 79.5 93.9333C84.1958 93.9333 88.0167 90.1125 88.0167 85.4167C88.0167 80.7208 84.1958 76.9 79.5 76.9V76.9Z" fill="#C2D1D9"/>
<mask id="mask0_669_652" style="mask-type:alpha" maskUnits="userSpaceOnUse" x="35" y="35" width="54" height="59">
<path fill-rule="evenodd" clip-rule="evenodd" d="M79.5 76.9C77.2833 76.9 75.3 77.775 73.7833 79.1458L52.9875 67.0417C53.1333 66.3708 53.25 65.7 53.25 65C53.25 64.3 53.1333 63.6292 52.9875 62.9583L73.55 50.9708C75.125 52.4292 77.1958 53.3333 79.5 53.3333C84.3417 53.3333 88.25 49.425 88.25 44.5833C88.25 39.7417 84.3417 35.8333 79.5 35.8333C74.6583 35.8333 70.75 39.7417 70.75 44.5833C70.75 45.2833 70.8667 45.9542 71.0125 46.625L50.45 58.6125C48.875 57.1542 46.8042 56.25 44.5 56.25C39.6583 56.25 35.75 60.1583 35.75 65C35.75 69.8417 39.6583 73.75 44.5 73.75C46.8042 73.75 48.875 72.8458 50.45 71.3875L71.2167 83.5208C71.0708 84.1333 70.9833 84.775 70.9833 85.4167C70.9833 90.1125 74.8042 93.9333 79.5 93.9333C84.1958 93.9333 88.0167 90.1125 88.0167 85.4167C88.0167 80.7208 84.1958 76.9 79.5 76.9V76.9Z" fill="white"/>
</mask>
<g mask="url(#mask0_669_652)">
<rect x="27" y="30" width="70" height="70" fill="white"/>
</g>
</svg>
