<svg width="122" height="122" viewBox="0 0 122 122" fill="none" xmlns="http://www.w3.org/2000/svg">
<circle cx="61" cy="61" r="61" fill="#932639"/>
<path fill-rule="evenodd" clip-rule="evenodd" d="M91 35H31C28.7909 35 27 36.7909 27 39V87C27 89.2091 28.7909 91 31 91H91C93.2091 91 95 89.2091 95 87V39C95 36.7909 93.2091 35 91 35ZM31 87V39H91V87H31Z" fill="white"/>
<path fill-rule="evenodd" clip-rule="evenodd" d="M38 51.5C38 55.6421 41.3579 59 45.5 59C49.6421 59 53 55.6421 53 51.5C53 47.3579 49.6421 44 45.5 44C41.3579 44 38 47.3579 38 51.5ZM49 51.5C49 53.433 47.433 55 45.5 55C43.567 55 42 53.433 42 51.5C42 49.567 43.567 48 45.5 48C47.433 48 49 49.567 49 51.5Z" fill="white"/>
<path d="M41.4081 82.4203C40.6237 83.198 39.3574 83.1925 38.5797 82.4081C37.802 81.6237 37.8075 80.3573 38.5919 79.5797L55.0413 63.2719L64.3126 71.3361C65.146 72.061 65.2339 73.3243 64.509 74.1577C63.7841 74.9911 62.5209 75.0791 61.6874 74.3542L55.2192 68.7281L41.4081 82.4203Z" fill="white"/>
<path d="M56.4143 82.4142C55.6333 83.1952 54.3669 83.1953 53.5858 82.4143C52.8048 81.6333 52.8047 80.3669 53.5857 79.5858L79.9084 53.2608L94.3191 65.9052C95.1493 66.6337 95.2318 67.8974 94.5033 68.7276C93.7748 69.5579 92.5112 69.6404 91.6809 68.9119L80.0872 58.7392L56.4143 82.4142Z" fill="white"/>
</svg>
