<svg width="122" height="122" viewBox="0 0 122 122" fill="none" xmlns="http://www.w3.org/2000/svg">
<circle cx="61" cy="61" r="61" fill="#932639"/>
<path fill-rule="evenodd" clip-rule="evenodd" d="M76.4591 61.0001C76.4591 60.0669 76.7291 59.1359 77.2458 58.3085C77.7626 57.4811 78.5261 56.7616 79.4756 56.2353C80.4974 55.6837 81.6311 55.3642 82.7947 55.3021C84.1106 55.2324 85.4272 55.4223 86.6679 55.8607C88.0559 56.351 89.3422 57.0862 90.4642 58.0304C91.6443 59.0143 92.7033 60.2508 93.5506 61.6781C94.3977 63.1078 95.0332 64.7304 95.3964 66.4543C95.7571 68.1781 95.8479 70.0008 95.6407 71.8213C95.4307 73.6633 94.9329 75.4621 94.1651 77.1536C93.3901 78.8578 92.3538 80.4339 91.0927 81.8264C89.8482 83.1993 88.3957 84.3733 86.7866 85.3063C85.2322 86.2066 83.5432 86.8582 81.7822 87.237C80.1192 87.5938 78.4083 87.6793 76.7174 87.4897C75.1554 87.3159 73.6355 86.8766 72.2251 86.1911C70.9496 85.5714 69.8026 84.7216 68.8432 83.6859C67.9899 82.7651 67.3391 81.6796 66.9322 80.4978C66.5727 79.4534 66.4666 78.3403 66.6226 77.2479C66.7809 76.2251 67.1906 75.2988 67.7934 74.5586C68.3986 73.8163 69.1923 73.2624 70.0908 72.9521C71.0217 72.6395 72.0179 72.5797 72.977 72.782C73.9709 72.9841 74.9577 73.4508 75.833 74.1656C76.7081 74.8781 77.4693 75.8388 78.0256 76.9813C78.5842 78.1259 78.9333 79.4521 79.0241 80.8724C79.1086 82.3732 78.9226 83.8768 78.4747 85.3132C77.9864 86.879 77.2368 88.3535 76.2566 89.6756C75.2111 91.0869 73.9436 92.3238 72.5022 93.3393C70.9955 94.3993 69.3307 95.2205 67.5676 95.7735C63.9449 96.909 60.0551 96.909 56.4324 95.7735C54.6693 95.2198 53.0045 94.3978 51.4979 93.3371C50.0566 92.3221 48.7891 91.0861 47.7436 89.6756C46.7634 88.3535 46.0137 86.879 45.5253 85.3132C45.0774 83.8768 44.8914 82.3732 44.9761 80.8724C45.0644 79.4521 45.4182 78.1259 45.977 76.9813C46.4926 75.8983 47.2389 74.9379 48.1647 74.1656C49.0424 73.4531 50.027 72.9841 51.0207 72.782C51.9815 72.5793 52.9799 72.638 53.9094 72.9521C54.8079 73.2624 55.6038 73.8163 56.2066 74.5586C56.8094 75.2988 57.2191 76.2251 57.3774 77.2479C57.5334 78.2707 57.4379 79.3901 57.0678 80.4978C56.6979 81.6058 56.0531 82.7043 55.1592 83.6859C54.2004 84.7201 53.0504 85.5706 51.7749 86.1911C50.3647 86.8773 48.8448 87.3174 47.2828 87.4921C45.5917 87.6808 43.8807 87.5945 42.2178 87.237C40.457 86.8582 38.768 86.2066 37.2134 85.3063C35.6045 84.3733 34.1518 83.1993 32.9075 81.8264C31.6461 80.4341 30.6098 78.8579 29.835 77.1536C29.0672 75.4621 28.5694 73.6633 28.3593 71.8213C28.155 70.0306 28.2374 68.2196 28.6038 66.4543C28.9668 64.7304 29.6023 63.1078 30.4495 61.6781C31.2617 60.2984 32.3053 59.0649 33.5359 58.0304C34.6571 57.0864 35.9427 56.3512 37.3299 55.8607C38.5706 55.424 39.8902 55.2333 41.2053 55.3021C42.3684 55.3644 43.5026 55.6833 44.5244 56.2353C45.4741 56.7616 46.2376 57.4811 46.7544 58.3085C47.2711 59.1359 47.5411 60.0669 47.5411 61.0001C47.5411 61.9333 47.2711 62.8642 46.7544 63.6916C46.2009 64.5581 45.4336 65.2715 44.5244 65.7648C43.5027 66.3164 42.3691 66.6359 41.2053 66.698C39.8896 66.7678 38.5728 66.5778 37.3323 66.1394C35.9442 65.6491 34.6579 64.9139 33.5359 63.9697C32.3055 62.9351 31.2618 61.7017 30.4495 60.3221C29.5766 58.8391 28.9533 57.2261 28.6038 55.5459C28.2374 53.7806 28.155 51.9695 28.3593 50.1789C28.5642 48.3609 29.0623 46.5474 29.835 44.8466C30.61 43.1424 31.6463 41.5663 32.9075 40.1737C34.1518 38.8008 35.6045 37.6269 37.2134 36.6939C38.768 35.7935 40.457 35.1419 42.2178 34.7632C43.8807 34.4063 45.5917 34.3209 47.2828 34.5104C48.8446 34.6843 50.3645 35.1236 51.7749 35.8091C53.0504 36.4295 54.1957 37.28 55.157 38.3143C56.0531 39.2958 56.6979 40.3944 57.0678 41.5023C57.4379 42.6101 57.5334 43.7294 57.3774 44.7523C57.2337 45.7348 56.8299 46.6625 56.2066 47.4416C55.6016 48.1839 54.8079 48.7378 53.9094 49.0481C52.9782 49.3606 51.9821 49.4204 51.0232 49.2181C49.9713 48.9933 48.9909 48.5184 48.1672 47.8346C47.2398 47.0624 46.4921 46.1021 45.9746 45.0189C45.3911 43.7975 45.0519 42.4762 44.9761 41.1277C44.8914 39.6269 45.0774 38.1234 45.5253 36.6869C46.0141 35.1217 46.7636 33.6461 47.7436 32.3245C48.7514 30.9524 50.0246 29.7043 51.4979 28.6608C53.0045 27.6009 54.6695 26.7797 56.4324 26.2267C60.0551 25.0912 63.9449 25.0912 67.5676 26.2267C69.3309 26.7804 70.9957 27.6024 72.5022 28.6631C73.9754 29.702 75.2487 30.9524 76.2566 32.3245C77.2668 33.6944 78.014 35.1838 78.4747 36.6869C78.9222 38.1236 79.1082 39.6269 79.0241 41.1277C78.9474 42.4762 78.6076 43.7977 78.0232 45.0189C77.5074 46.1019 76.7611 47.0623 75.8352 47.8346C74.9577 48.5471 73.9732 49.016 72.9792 49.2181C72.0187 49.4208 71.0202 49.3621 70.0908 49.0481C69.1878 48.7355 68.3917 48.1788 67.7934 47.4416C67.1703 46.6625 66.7664 45.7348 66.6226 44.7523C66.4666 43.6599 66.5727 42.5467 66.9322 41.5023C67.3023 40.3944 67.9471 39.2958 68.8409 38.3143C69.7998 37.28 70.9496 36.4295 72.2251 35.8091C73.6355 35.1228 75.1552 34.6827 76.7174 34.5081C78.4085 34.3193 80.1194 34.4055 81.7822 34.7632C83.5432 35.1419 85.2322 35.7935 86.7866 36.6939C88.3717 37.6109 89.8357 38.7901 91.0927 40.1737C92.3538 41.5663 93.3901 43.1424 94.1651 44.8466C94.9377 46.5474 95.4359 48.3609 95.6407 50.1789C95.8479 51.9993 95.7571 53.8243 95.3964 55.5459C95.0469 57.2261 94.4234 58.8391 93.5506 60.3221C92.7382 61.7017 91.6946 62.9351 90.4642 63.9697C89.3424 64.9121 88.0574 65.6476 86.6701 66.1394C85.4296 66.5761 84.1098 66.7668 82.7947 66.698C81.6316 66.6358 80.4974 66.317 79.4756 65.7648C78.5664 65.2715 77.7989 64.5583 77.2458 63.6916C76.7358 62.8839 76.4636 61.952 76.4591 61.0001Z" stroke="white" stroke-width="1.25"/>
</svg>
