<svg width="122" height="122" viewBox="0 0 122 122" fill="none" xmlns="http://www.w3.org/2000/svg">
<circle cx="61" cy="61" r="61" fill="#932639"/>
<path fill-rule="evenodd" clip-rule="evenodd" d="M32.2498 89.5688L54.6561 28.7969V28.7938H68.3467L90.7529 89.5688L91.9061 92.6938H79.7436L73.0123 74.4375H49.9873L43.2561 92.6938H31.0967L32.2467 89.5688H32.2498ZM35.5779 89.5688L56.8342 31.9188H66.1686L87.4217 89.5688H81.9217L75.9436 73.3563L75.1936 71.3125H47.8061L47.0529 73.3563L41.0748 89.5688H35.5748H35.5779ZM63.3498 39.1938H59.6529L58.5686 42.1313L51.2623 61.9438L49.7123 66.15H73.2873L71.7373 61.9438L64.4311 42.1313L63.3498 39.1938V39.1938ZM59.8342 47.7281L61.4998 43.2125L63.1654 47.7281L67.6529 59.9L68.8061 63.025H54.1967L55.3467 59.9L59.8342 47.7281V47.7281Z" fill="white"/>
</svg>
