<svg width="24" height="24" viewBox="0 0 24 24" fill="none" xmlns="http://www.w3.org/2000/svg">
<path fill-rule="evenodd" clip-rule="evenodd" d="M13 13V18C13 18.5523 12.5523 19 12 19C11.4477 19 11 18.5523 11 18V13H6C5.44772 13 5 12.5523 5 12C5 11.4477 5.44772 11 6 11H11V6C11 5.44772 11.4477 5 12 5C12.5523 5 13 5.44772 13 6V11H18C18.5523 11 19 11.4477 19 12C19 12.5523 18.5523 13 18 13H13Z" fill="black" fill-opacity="0.7"/>
<mask id="mask0_1409_10906" style="mask-type:alpha" maskUnits="userSpaceOnUse" x="5" y="5" width="14" height="14">
<path fill-rule="evenodd" clip-rule="evenodd" d="M13 13V18C13 18.5523 12.5523 19 12 19C11.4477 19 11 18.5523 11 18V13H6C5.44772 13 5 12.5523 5 12C5 11.4477 5.44772 11 6 11H11V6C11 5.44772 11.4477 5 12 5C12.5523 5 13 5.44772 13 6V11H18C18.5523 11 19 11.4477 19 12C19 12.5523 18.5523 13 18 13H13Z" fill="white"/>
</mask>
<g mask="url(#mask0_1409_10906)">
<rect width="24" height="24" fill="#333333"/>
</g>
</svg>
