<svg width="24" height="24" viewBox="0 0 24 24" fill="none" xmlns="http://www.w3.org/2000/svg">
<path fill-rule="evenodd" clip-rule="evenodd" d="M4.70532 11.2947C4.31578 11.6842 4.31578 12.3158 4.70532 12.7053C5.0946 13.0946 5.72568 13.0949 6.11531 12.7059L11 7.83V19C11 19.5523 11.4477 20 12 20C12.5523 20 13 19.5523 13 19V7.83L17.8847 12.7059C18.2743 13.0949 18.9054 13.0946 19.2947 12.7053C19.6842 12.3158 19.6842 11.6842 19.2947 11.2947L12 4L4.70532 11.2947Z" fill="black" fill-opacity="0.7"/>
<mask id="mask0_808_12114" style="mask-type:alpha" maskUnits="userSpaceOnUse" x="4" y="4" width="16" height="16">
<path fill-rule="evenodd" clip-rule="evenodd" d="M4.70532 11.2947C4.31578 11.6842 4.31578 12.3158 4.70532 12.7053C5.0946 13.0946 5.72568 13.0949 6.11531 12.7059L11 7.83V19C11 19.5523 11.4477 20 12 20C12.5523 20 13 19.5523 13 19V7.83L17.8847 12.7059C18.2743 13.0949 18.9054 13.0946 19.2947 12.7053C19.6842 12.3158 19.6842 11.6842 19.2947 11.2947L12 4L4.70532 11.2947Z" fill="white"/>
</mask>
<g mask="url(#mask0_808_12114)">
<rect width="24" height="24" fill="#333333"/>
<path d="M0 0V-1H-1V0H0ZM24 0H25V-1H24V0ZM24 24V25H25V24H24ZM0 24H-1V25H0V24ZM0 1H24V-1H0V1ZM23 0V24H25V0H23ZM24 23H0V25H24V23ZM1 24V0H-1V24H1Z" fill="#333333"/>
</g>
</svg>
