<svg width="24" height="24" viewBox="0 0 24 24" fill="none" xmlns="http://www.w3.org/2000/svg">
<path fill-rule="evenodd" clip-rule="evenodd" d="M19.2947 12.7053C19.6842 12.3158 19.6842 11.6842 19.2947 11.2947C18.9054 10.9054 18.2743 10.9051 17.8847 11.2941L13 16.17L13 5C13 4.44771 12.5523 4 12 4C11.4477 4 11 4.44772 11 5L11 16.17L6.11531 11.2941C5.72568 10.9051 5.0946 10.9054 4.70532 11.2947C4.31578 11.6842 4.31578 12.3158 4.70532 12.7053L12 20L19.2947 12.7053Z" fill="black" fill-opacity="0.7"/>
<mask id="mask0_808_12116" style="mask-type:alpha" maskUnits="userSpaceOnUse" x="4" y="4" width="16" height="16">
<path fill-rule="evenodd" clip-rule="evenodd" d="M19.2947 12.7053C19.6842 12.3158 19.6842 11.6842 19.2947 11.2947C18.9054 10.9054 18.2743 10.9051 17.8847 11.2941L13 16.17L13 5C13 4.44771 12.5523 4 12 4C11.4477 4 11 4.44772 11 5L11 16.17L6.11531 11.2941C5.72568 10.9051 5.0946 10.9054 4.70532 11.2947C4.31578 11.6842 4.31578 12.3158 4.70532 12.7053L12 20L19.2947 12.7053Z" fill="white"/>
</mask>
<g mask="url(#mask0_808_12116)">
<rect width="24" height="24" fill="#333333"/>
</g>
</svg>
