<svg width="22" height="23" viewBox="0 0 22 23" fill="none" xmlns="http://www.w3.org/2000/svg">
<path d="M11 22.8399C12.6557 22.8399 13.9986 21.5619 13.9986 19.9849H8.00144C8.00144 21.5619 9.34441 22.8399 11 22.8399ZM21.0964 16.1615C20.1908 15.2354 18.4963 13.8422 18.4963 9.27872C18.4963 5.81258 15.9425 3.03789 12.4991 2.35715V1.4275C12.4991 0.63925 11.8278 0 11 0C10.1722 0 9.50097 0.63925 9.50097 1.4275V2.35715C6.05753 3.03789 3.50378 5.81258 3.50378 9.27872C3.50378 13.8422 1.80925 15.2354 0.903626 16.1615C0.622376 16.4492 0.497689 16.7931 0.500032 17.1299C0.505189 17.8615 1.10847 18.5574 2.00472 18.5574H19.9953C20.8916 18.5574 21.4953 17.8615 21.5 17.1299C21.5024 16.7931 21.3777 16.4488 21.0964 16.1615Z" fill="#333333"/>
</svg>
