<svg width="59" height="60" viewBox="0 0 59 60" fill="none" xmlns="http://www.w3.org/2000/svg">
<path d="M41.4165 30C41.4165 29.2651 41.5683 28.5302 42.0237 27.9423C42.4791 27.3543 43.0863 26.7664 43.8453 26.3255C44.6043 25.8845 45.5151 25.5906 46.5777 25.5906C47.6404 25.5906 48.703 25.7375 49.7656 26.0315C50.8282 26.4724 51.8908 27.0604 52.8016 27.7953C53.7124 28.5302 54.6233 29.5591 55.2305 30.5879C55.9895 31.7638 56.4449 32.9396 56.7485 34.2625C57.0521 35.5853 57.0521 37.0551 56.9003 38.5249C56.7485 39.9947 56.2931 41.3176 55.6859 42.6404C55.0787 43.9633 54.1678 45.1391 53.257 46.315C52.1944 47.3438 51.1318 48.3727 49.7656 49.1076C48.5512 49.8425 47.185 50.2835 45.6669 50.5774C44.3007 50.8714 42.9345 50.8714 41.5683 50.7244C40.3539 50.5774 39.1394 50.2835 37.925 49.6955C36.8624 49.2546 35.9516 48.5197 35.1926 47.7848C34.4336 47.0499 33.9782 46.168 33.6746 45.2861C33.371 44.4042 33.371 43.5223 33.371 42.7874C33.5228 42.0525 33.8264 41.3176 34.2818 40.7297C34.7372 40.1417 35.3444 39.7008 36.1034 39.4068C36.8624 39.1129 37.6214 39.1129 38.3804 39.2598C39.1394 39.4068 40.0503 39.8478 40.6575 40.2887C41.4165 40.8766 42.0237 41.6115 42.4791 42.4934C42.9345 43.3753 43.2381 44.4042 43.2381 45.5801C43.2381 46.7559 43.0863 47.9318 42.7827 49.1076C42.3273 50.2835 41.7201 51.4593 40.9611 52.4882C40.0502 53.664 39.1394 54.5459 37.925 55.4278C36.7106 56.3097 35.3444 56.8976 33.9782 57.3386C31.0939 58.2205 27.9061 58.2205 25.0218 57.3386C23.6556 56.8976 22.2894 56.3097 21.075 55.4278C19.8606 54.6929 18.9497 53.664 18.0389 52.4882C17.2799 51.4593 16.6727 50.2835 16.2173 49.1076C15.9137 47.9318 15.7619 46.7559 15.7619 45.5801C15.7619 44.4042 16.0655 43.3753 16.5209 42.4934C16.9763 41.6115 17.5835 40.8766 18.3425 40.2887C19.1016 39.7008 19.8606 39.4068 20.6196 39.2598C21.3786 39.1129 22.1376 39.1129 22.8966 39.4068C23.6556 39.7008 24.2628 40.1417 24.7182 40.7297C25.1736 41.3176 25.4772 42.0525 25.629 42.7874C25.7808 43.5223 25.629 44.4042 25.3254 45.2861C25.0218 46.168 24.5664 47.0499 23.8074 47.7848C23.0484 48.6667 22.1376 49.2546 21.075 49.6955C19.8606 50.2835 18.6461 50.5774 17.4317 50.7244C16.0655 50.8714 14.6993 50.8714 13.3331 50.5774C11.9669 50.2835 10.6006 49.8425 9.23441 49.1076C7.86819 48.3727 6.80558 47.4908 5.74296 46.315C4.68035 45.2861 3.92134 43.9633 3.31413 42.6404C2.70692 41.3176 2.25151 39.8478 2.09971 38.5249C1.94791 37.0551 1.94791 35.7323 2.25151 34.2625C2.55512 32.9396 3.01052 31.6168 3.76954 30.5879C4.37674 29.5591 5.28756 28.5302 6.19837 27.7953C7.10918 27.0604 8.1718 26.4724 9.23441 26.0315C10.297 25.7375 11.3596 25.5906 12.4223 25.5906C13.3331 25.5906 14.2439 25.8845 15.1547 26.3255C15.9137 26.7664 16.5209 27.3543 16.9763 27.9423C17.4317 28.5302 17.5835 29.2651 17.5835 30C17.5835 30.7349 17.4317 31.4698 16.9763 32.0577C16.5209 32.7927 15.9137 33.2336 15.1547 33.6745C14.3957 34.1155 13.4849 34.4094 12.4223 34.4094C11.3596 34.4094 10.297 34.2625 9.23441 33.9685C8.1718 33.5276 7.10918 32.9396 6.19837 32.2047C5.13575 31.3228 4.37674 30.4409 3.76954 29.4121C3.01052 28.2362 2.55512 26.9134 2.25151 25.7375C1.94791 24.4147 1.94791 22.9449 2.09971 21.4751C2.25151 20.0053 2.70692 18.6824 3.31413 17.3596C3.92134 16.0367 4.83215 14.8609 5.74296 13.685C6.80558 12.6562 7.86819 11.6273 9.23441 10.8924C10.4488 10.1575 11.815 9.71654 13.3331 9.42257C14.6993 9.12861 16.0655 9.12861 17.4317 9.27559C18.6461 9.42257 19.8606 9.71654 21.075 10.3045C22.1376 10.7454 23.0484 11.4803 23.8074 12.2152C24.5664 12.9501 25.0218 13.832 25.3254 14.7139C25.629 15.5958 25.629 16.4777 25.629 17.2126C25.4772 17.9475 25.1736 18.6824 24.7182 19.2703C24.2628 19.8583 23.6556 20.2992 22.8966 20.5932C22.1376 20.8871 21.3786 20.8871 20.6196 20.7402C19.7088 20.5932 18.9497 20.1522 18.3425 19.7113C17.5835 19.1234 16.9763 18.3885 16.5209 17.5066C16.0655 16.4777 15.7619 15.4488 15.7619 14.4199C15.7619 13.2441 15.9137 12.0682 16.2173 10.8924C16.6727 9.71654 17.2799 8.54068 18.0389 7.51181C18.7979 6.48294 19.8606 5.45407 21.075 4.57218C22.2894 3.69029 23.6556 3.10236 25.0218 2.66142C27.9061 1.77953 31.0939 1.77953 33.9782 2.66142C35.3444 3.10236 36.7106 3.69029 37.925 4.57218C39.1394 5.45407 40.2021 6.33596 40.9611 7.51181C41.7201 8.54068 42.3273 9.71654 42.7827 10.8924C43.0863 12.0682 43.2381 13.2441 43.2381 14.4199C43.2381 15.4488 42.9345 16.4777 42.4791 17.5066C42.0237 18.3885 41.4165 19.1234 40.6575 19.7113C39.8984 20.2992 39.1394 20.5932 38.3804 20.7402C37.6214 20.8871 36.8624 20.8871 36.1034 20.5932C35.3444 20.2992 34.7372 19.8583 34.2818 19.2703C33.8264 18.6824 33.5228 17.9475 33.371 17.2126C33.2192 16.3307 33.371 15.4488 33.6746 14.7139C33.9782 13.832 34.4336 12.9501 35.1926 12.2152C35.9516 11.3333 36.8624 10.7454 37.925 10.3045C39.1394 9.71654 40.3539 9.42257 41.5683 9.27559C42.9345 9.12861 44.3007 9.12861 45.6669 9.42257C47.0331 9.71654 48.3994 10.1575 49.7656 10.8924C50.98 11.6273 52.1944 12.5092 53.257 13.685C54.3197 14.7139 55.0787 16.0367 55.6859 17.3596C56.2931 18.6824 56.7485 20.1522 56.9003 21.4751C57.0521 22.9449 57.0521 24.2677 56.7485 25.7375C56.4449 27.0604 55.9895 28.3832 55.2305 29.4121C54.6233 30.4409 53.7124 31.4698 52.8016 32.2047C51.8908 32.9396 50.8282 33.5276 49.7656 33.9685C48.703 34.2625 47.6404 34.4094 46.5777 34.4094C45.6669 34.4094 44.7561 34.1155 43.8453 33.6745C43.0863 33.2336 42.4791 32.7927 42.0237 32.0577C41.7201 31.4698 41.4165 30.7349 41.4165 30Z" stroke="#333333" stroke-width="4"/>
</svg>
