<svg width="64" height="52" viewBox="0 0 64 52" fill="none" xmlns="http://www.w3.org/2000/svg">
<path d="M2.71169 2.85742H61.0702C61.4972 2.85742 61.7819 3.13053 61.7819 3.54019V48.6028C61.7819 49.0124 61.4972 49.2856 61.0702 49.2856H2.71169C2.28468 49.2856 2 49.0124 2 48.6028V3.54019C2 3.13053 2.28468 2.85742 2.71169 2.85742Z" stroke="#333333" stroke-width="4"/>
<path d="M41.8551 19.2439C44.2134 19.2439 46.1252 17.4098 46.1252 15.1474C46.1252 12.8849 44.2134 11.0508 41.8551 11.0508C39.4968 11.0508 37.585 12.8849 37.585 15.1474C37.585 17.4098 39.4968 19.2439 41.8551 19.2439Z" stroke="#333333" stroke-width="4"/>
<path d="M50.9642 49.2862L15.0951 14.8748C14.8104 14.6016 14.3834 14.6016 14.0987 14.8748L2 26.4818" stroke="#333333" stroke-width="4"/>
<path d="M61.7819 36.4504L52.1029 27.1648C51.8182 26.8917 51.3912 26.8917 51.1065 27.1648L39.0078 38.7719" stroke="#333333" stroke-width="4"/>
</svg>
