<svg width="25" height="25" viewBox="0 0 25 25" fill="none" xmlns="http://www.w3.org/2000/svg">
<path fill-rule="evenodd" clip-rule="evenodd" d="M17.504 12.6864C17.504 12.3819 17.5971 12.078 17.7753 11.808C17.9535 11.5379 18.2168 11.3031 18.5442 11.1314C18.8966 10.9513 19.2875 10.8471 19.6888 10.8268C20.1425 10.804 20.5966 10.866 21.0244 11.0091C21.503 11.1691 21.9466 11.4091 22.3335 11.7172C22.7404 12.0383 23.1056 12.4419 23.3978 12.9077C23.6899 13.3743 23.909 13.9039 24.0343 14.4665C24.1587 15.0291 24.19 15.624 24.1185 16.2181C24.0461 16.8193 23.8745 17.4064 23.6097 17.9584C23.3425 18.5146 22.9851 19.029 22.5502 19.4835C22.1211 19.9316 21.6202 20.3147 21.0653 20.6192C20.5293 20.9131 19.9469 21.1257 19.3396 21.2493C18.7662 21.3658 18.1762 21.3937 17.5931 21.3318C17.0545 21.2751 16.5304 21.1317 16.044 20.908C15.6042 20.7057 15.2087 20.4284 14.8778 20.0904C14.5836 19.7898 14.3591 19.4356 14.2188 19.0499C14.0949 18.709 14.0583 18.3457 14.1121 17.9892C14.1667 17.6554 14.3079 17.3531 14.5158 17.1115C14.7245 16.8692 14.9982 16.6885 15.308 16.5872C15.6291 16.4852 15.9726 16.4657 16.3033 16.5317C16.646 16.5977 16.9863 16.75 17.2882 16.9832C17.5899 17.2158 17.8524 17.5293 18.0442 17.9022C18.2369 18.2758 18.3572 18.7086 18.3885 19.1721C18.4177 19.6619 18.3536 20.1527 18.1991 20.6215C18.0307 21.1325 17.7722 21.6137 17.4342 22.0452C17.0737 22.5058 16.6366 22.9095 16.1396 23.2409C15.62 23.5869 15.0459 23.8549 14.438 24.0354C13.1887 24.406 11.8474 24.406 10.5981 24.0354C9.99018 23.8547 9.41609 23.5864 8.89658 23.2402C8.39956 22.909 7.96249 22.5056 7.60196 22.0452C7.26394 21.6137 7.00544 21.1325 6.83701 20.6215C6.68255 20.1527 6.61841 19.6619 6.64763 19.1721C6.67808 18.7086 6.80009 18.2758 6.99277 17.9022C7.17057 17.5487 7.42791 17.2353 7.74718 16.9832C8.04984 16.7507 8.38935 16.5977 8.73203 16.5317C9.06333 16.4655 9.40762 16.4847 9.72812 16.5872C10.038 16.6885 10.3124 16.8692 10.5203 17.1115C10.7282 17.3531 10.8694 17.6554 10.924 17.9892C10.9778 18.323 10.9449 18.6884 10.8173 19.0499C10.6897 19.4115 10.4673 19.77 10.1591 20.0904C9.82847 20.4279 9.43193 20.7055 8.99208 20.908C8.50579 21.132 7.98169 21.2756 7.44304 21.3326C6.8599 21.3942 6.26991 21.366 5.69647 21.2493C5.08928 21.1257 4.50685 20.9131 3.97079 20.6192C3.41596 20.3147 2.91504 19.9316 2.48594 19.4835C2.05098 19.0291 1.69362 18.5147 1.42646 17.9584C1.16168 17.4064 0.990025 16.8193 0.91759 16.2181C0.847115 15.6337 0.875551 15.0427 1.00187 14.4665C1.12708 13.9039 1.3462 13.3743 1.63836 12.9077C1.91842 12.4575 2.27831 12.0549 2.70265 11.7172C3.08929 11.4091 3.53261 11.1692 4.01094 11.0091C4.43877 10.8666 4.89382 10.8044 5.34732 10.8268C5.74839 10.8471 6.1395 10.9512 6.49187 11.1314C6.81936 11.3031 7.08264 11.5379 7.26083 11.808C7.43903 12.078 7.53213 12.3819 7.53213 12.6864C7.53213 12.991 7.43903 13.2948 7.26083 13.5649C7.06997 13.8477 6.80539 14.0805 6.49187 14.2415C6.13956 14.4215 5.74865 14.5258 5.34732 14.5461C4.89363 14.5688 4.43955 14.5068 4.01178 14.3638C3.53313 14.2037 3.08953 13.9638 2.70265 13.6556C2.27835 13.318 1.91847 12.9154 1.63836 12.4652C1.33735 11.9812 1.1224 11.4547 1.00187 10.9064C0.875551 10.3302 0.847115 9.73915 0.91759 9.15475C0.988221 8.56141 1.15999 7.96954 1.42646 7.41445C1.69369 6.85826 2.05104 6.34386 2.48594 5.88937C2.91504 5.44131 3.41596 5.05817 3.97079 4.75367C4.50685 4.45982 5.08928 4.24717 5.69647 4.12356C6.26991 4.00707 6.8599 3.97919 7.44304 4.04104C7.98162 4.09781 8.50573 4.24117 8.99208 4.4649C9.43193 4.66739 9.82686 4.94497 10.1584 5.28251C10.4673 5.60286 10.6897 5.9614 10.8173 6.32299C10.9449 6.68453 10.9778 7.04986 10.924 7.38367C10.8745 7.70433 10.7352 8.00712 10.5203 8.26138C10.3117 8.50364 10.038 8.68441 9.72812 8.78569C9.40704 8.8877 9.06352 8.90722 8.73287 8.84119C8.37014 8.76782 8.03206 8.61281 7.74802 8.38964C7.42823 8.13764 7.17038 7.82421 6.99193 7.47069C6.79072 7.07207 6.67375 6.64084 6.64763 6.20073C6.61841 5.71093 6.68255 5.22022 6.83701 4.75141C7.00557 4.24056 7.264 3.75899 7.60196 3.32766C7.94949 2.87983 8.38851 2.47249 8.89658 2.13193C9.41609 1.78602 9.99024 1.518 10.5981 1.33753C11.8474 0.966918 13.1887 0.966918 14.438 1.33753C15.046 1.51823 15.6201 1.78651 16.1396 2.13268C16.6476 2.47175 17.0867 2.87983 17.4342 3.32766C17.7826 3.77475 18.0402 4.26082 18.1991 4.75141C18.3534 5.22028 18.4176 5.71093 18.3885 6.20073C18.3621 6.64084 18.2449 7.07213 18.0434 7.47069C17.8655 7.82414 17.6082 8.13758 17.2889 8.38964C16.9863 8.62218 16.6468 8.77522 16.3041 8.84119C15.9728 8.90734 15.6285 8.88819 15.308 8.78569C14.9967 8.68368 14.7221 8.50199 14.5158 8.26138C14.301 8.00712 14.1617 7.70433 14.1121 7.38367C14.0583 7.02715 14.0949 6.66384 14.2188 6.32299C14.3465 5.9614 14.5688 5.60286 14.877 5.28251C15.2077 4.94497 15.6042 4.66739 16.044 4.4649C16.5304 4.24093 17.0544 4.0973 17.5931 4.04029C18.1763 3.97869 18.7663 4.00682 19.3396 4.12356C19.9469 4.24717 20.5293 4.45982 21.0653 4.75367C21.6119 5.05297 22.1168 5.43782 22.5502 5.88937C22.9851 6.34386 23.3425 6.85826 23.6097 7.41445C23.8761 7.96954 24.0479 8.56141 24.1185 9.15475C24.19 9.74888 24.1587 10.3445 24.0343 10.9064C23.9138 11.4547 23.6988 11.9812 23.3978 12.4652C23.1176 12.9154 22.7578 13.318 22.3335 13.6556C21.9467 13.9632 21.5036 14.2033 21.0252 14.3638C20.5974 14.5063 20.1423 14.5685 19.6888 14.5461C19.2877 14.5257 18.8966 14.4217 18.5442 14.2415C18.2307 14.0805 17.9661 13.8477 17.7753 13.5649C17.5995 13.3013 17.5056 12.9971 17.504 12.6864Z" stroke="currentcolor" stroke-width="1.25"/>
</svg>
