<svg width="80" height="49" viewBox="0 0 80 49" fill="none" xmlns="http://www.w3.org/2000/svg">
<path fill-rule="evenodd" clip-rule="evenodd" d="M40.0009 42.6039C35.7301 45.7309 30.6051 47.5414 25.3092 47.5414C12.1551 47.5414 1.39258 37.1726 1.39258 24.4997C1.39258 11.8268 12.1551 1.45801 25.3092 1.45801C30.6051 1.45801 35.9009 3.10384 40.0009 6.39551C44.2717 3.26843 49.3967 1.45801 54.6926 1.45801C67.8467 1.45801 78.6092 11.8268 78.6092 24.4997C78.6092 37.1726 67.8467 47.5414 54.6926 47.5414C49.3967 47.5414 44.2717 45.8955 40.0009 42.6039ZM38.2926 41.2872C34.7051 43.9205 30.0926 45.5664 25.1384 45.5664C13.1801 45.5664 3.44258 36.0205 3.44258 24.4997C3.44258 12.9788 13.1801 3.43301 25.3092 3.43301C37.4384 3.43301 47.0051 12.9788 47.0051 24.4997C47.0051 27.6268 46.3217 30.7539 44.7842 33.5518C42.2217 30.9184 41.0259 27.9559 41.0259 24.4997C41.0259 16.1059 34.0217 9.35801 25.3092 9.35801C16.5967 9.35801 9.42174 16.1059 9.42174 24.4997C9.42174 32.8934 16.4259 39.6414 25.1384 39.6414C28.3842 39.6414 31.6301 38.6539 34.3634 36.6789C35.5592 38.4893 36.9259 39.9705 38.2926 41.2872ZM33.5092 35.033C31.8009 31.7414 30.9467 28.1205 30.9467 24.4997C30.9467 20.8788 31.8009 17.258 33.5092 13.9663C31.2884 12.3205 28.3842 11.333 25.3092 11.333C17.7926 11.333 11.6426 17.258 11.6426 24.4997C11.6426 31.7414 17.7926 37.6664 25.3092 37.6664C28.3842 37.6664 31.1176 36.6789 33.5092 35.033ZM35.0467 15.4476C33.6801 18.2455 32.8259 21.3726 32.8259 24.4997C32.8259 36.0205 42.5634 45.5664 54.5217 45.5664C66.4801 45.5664 76.5592 36.0205 76.5592 24.4997C76.5592 12.9788 66.8217 3.43301 54.6926 3.43301C49.7384 3.43301 45.2967 5.07884 41.5384 7.71218C43.0759 9.02884 44.2717 10.5101 45.2967 12.1559C48.0301 10.3455 51.2759 9.19343 54.5217 9.19343C63.2342 9.19343 70.2384 15.9413 70.2384 24.3351C70.2384 32.7288 63.2342 39.4768 54.5217 39.4768C45.8092 39.4768 38.8051 32.7288 38.8051 24.3351C38.9759 21.0434 37.6092 17.7518 35.0467 15.4476ZM46.4926 13.9663C48.2009 17.258 49.0551 20.8788 49.0551 24.4997C49.0551 28.1205 48.2009 31.7414 46.4926 35.033C48.7134 36.6789 51.6176 37.6664 54.6926 37.6664C62.2092 37.6664 68.3592 31.7414 68.3592 24.4997C68.3592 17.258 62.2092 11.333 54.6926 11.333C51.6176 11.333 48.8842 12.3205 46.4926 13.9663Z" fill="#333333" stroke="#333333" stroke-width="1.5" stroke-miterlimit="10"/>
</svg>
