<svg width="24" height="21" viewBox="0 0 24 21" fill="none" xmlns="http://www.w3.org/2000/svg">
<path d="M12.3336 18.6679H10.0002V13.7026L17.0311 7.01198C17.6777 6.39657 17.2198 5.34458 16.3052 5.34458H1.02857C0.113984 5.34458 -0.343933 6.39657 0.302734 7.01198L7.33357 13.7026V18.6679H5.00023C4.07982 18.6679 3.33357 19.3781 3.33357 20.254C3.33357 20.4292 3.48273 20.5712 3.6669 20.5712H13.6669C13.8511 20.5712 14.0002 20.4292 14.0002 20.254C14.0002 19.3781 13.254 18.6679 12.3336 18.6679ZM18.0002 0.269043C15.3915 0.269043 13.194 1.86308 12.3677 4.0757H14.5569C15.2506 2.94361 16.5265 2.17237 18.0002 2.17237C20.2056 2.17237 22.0002 3.87981 22.0002 5.97903C22.0002 8.07824 20.2056 9.78568 18.0002 9.78568C17.4152 9.78568 16.8631 9.65879 16.3619 9.44308L14.8927 10.8412C15.8015 11.3686 16.8581 11.689 18.0002 11.689C21.314 11.689 24.0002 9.1326 24.0002 5.97903C24.0002 2.82545 21.314 0.269043 18.0002 0.269043Z" fill="#333333"/>
</svg>
