<svg width="64" height="54" viewBox="0 0 64 54" fill="none" xmlns="http://www.w3.org/2000/svg">
<path d="M32 30C36.4444 30 40 26.4771 40 22.0734C40 17.6697 36.4444 14 32 14C27.5556 14 24 17.5229 24 21.9266C24 26.3303 27.5556 30 32 30Z" stroke="#333333" stroke-width="4" stroke-miterlimit="10"/>
<path d="M32 33C35.3647 33 38.7294 34.3053 41.1765 36.626C43.6235 38.9466 45 41.9924 45 45.3282V49.9695C45 50.5496 44.8471 50.9847 44.3882 51.4198C43.9294 51.855 43.4706 52 42.8588 52H21.1412C20.5294 52 20.0706 51.855 19.6118 51.4198C19.1529 50.9847 19 50.5496 19 49.9695V45.1832C19 41.9924 20.3765 38.8015 22.8235 36.626C25.2706 34.3053 28.6353 33 32 33Z" stroke="#333333" stroke-width="4" stroke-miterlimit="10"/>
<path d="M50 34C53.3 34 56 31.3 56 28C56 24.7 53.3 22 50 22C46.7 22 44 24.7 44 28C44 31.3 46.7 34 50 34Z" stroke="#333333" stroke-width="4" stroke-miterlimit="10"/>
<path fill-rule="evenodd" clip-rule="evenodd" d="M44 51H57.5385C58.1538 51 58.7692 50.7196 59.2308 50.2991C59.6923 49.8785 60 49.3178 60 48.757V45.5327C60 43.0093 58.9231 40.6262 56.9231 38.8037C54.9231 36.9813 52.3077 36 49.5385 36C46.7692 36 44.1538 36.9813 42.1538 38.8037C42.1538 38.8037 42.1538 38.8037 42 38.9439C42.3077 39.5047 42.7692 39.9252 43.0769 40.486C43.2308 40.3458 43.3846 40.2056 43.5385 40.0654C45.0769 38.6635 47.3846 37.8224 49.5385 37.8224C51.8462 37.8224 54 38.6635 55.5385 40.0654C57.0769 41.4673 58 43.5701 58 45.5327V48.757C58 48.8972 58 49.0374 57.8462 49.1776C57.6923 49.3178 57.5385 49.3178 57.3846 49.3178H44.1538V50.0187C44.3077 50.2991 44.1538 50.7196 44 51Z" stroke="#333333" stroke-width="2" stroke-miterlimit="10"/>
<path d="M14 34C10.7 34 8 31.3 8 28C8 24.7 10.7 22 14 22C17.3 22 20 24.7 20 28C20 31.3 17.3 34 14 34Z" stroke="#333333" stroke-width="4" stroke-miterlimit="10"/>
<path fill-rule="evenodd" clip-rule="evenodd" d="M20 51H6.46154C5.84615 51 5.23077 50.7196 4.76923 50.2991C4.30769 49.8785 4 49.3178 4 48.757V45.5327C4 43.0093 5.07692 40.6262 7.07692 38.8037C9.07692 36.9813 11.6923 36 14.4615 36C17.2308 36 19.8462 36.9813 21.8462 38.8037C21.8462 38.8037 21.8462 38.8037 22 38.9439C21.6923 39.5047 21.2308 39.9252 20.9231 40.486C20.7692 40.3458 20.6154 40.2056 20.4615 40.0654C18.9231 38.6635 16.6154 37.8224 14.4615 37.8224C12.1538 37.8224 10 38.6635 8.46154 40.0654C6.92308 41.4673 6 43.5701 6 45.5327V48.757C6 48.8972 6 49.0374 6.15385 49.1776C6.30769 49.3178 6.46154 49.3178 6.61538 49.3178H19.8462V50.0187C19.6923 50.2991 19.8462 50.7196 20 51Z" stroke="#333333" stroke-width="2" stroke-miterlimit="10"/>
<path fill-rule="evenodd" clip-rule="evenodd" d="M58.5714 43.0943C60.1952 39.478 61.2286 35.5723 61.2286 31.3774C61.2286 15.6101 48.2381 2.73585 32 2.73585C15.7619 2.73585 2.77143 15.6101 2.77143 31.3774C2.77143 35.5723 3.65714 39.6226 5.42857 43.0943V47C2.62381 42.5157 1 37.1635 1 31.3774C1 14.5975 14.8762 1 32 1C49.1238 1 63 14.5975 63 31.3774C63 37.1635 61.3762 42.5157 58.5714 47V43.0943Z" stroke="#333333" stroke-width="2" stroke-miterlimit="10"/>
</svg>
