<svg width="24" height="24" viewBox="0 0 24 24" fill="none" xmlns="http://www.w3.org/2000/svg">
<path fill-rule="evenodd" clip-rule="evenodd" d="M6.41046 10.4103C6.02089 10.0207 6.02089 9.38911 6.41046 8.99954C6.79974 8.61026 7.43076 8.60992 7.82046 8.99877L11.7051 12.8749L15.5897 8.99877C15.9794 8.60992 16.6104 8.61026 16.9997 8.99954C17.3893 9.38911 17.3893 10.0207 16.9997 10.4103L11.7051 15.7049L6.41046 10.4103Z" fill="#C2D1D9"/>
<mask id="mask0_808_12120" style="mask-type:alpha" maskUnits="userSpaceOnUse" x="6" y="8" width="12" height="8">
<path fill-rule="evenodd" clip-rule="evenodd" d="M6.41046 10.4103C6.02089 10.0207 6.02089 9.38911 6.41046 8.99954C6.79974 8.61026 7.43076 8.60992 7.82046 8.99877L11.7051 12.8749L15.5897 8.99877C15.9794 8.60992 16.6104 8.61026 16.9997 8.99954C17.3893 9.38911 17.3893 10.0207 16.9997 10.4103L11.7051 15.7049L6.41046 10.4103Z" fill="white"/>
</mask>
<g mask="url(#mask0_808_12120)">
<rect width="24" height="24" fill="#333333"/>
</g>
</svg>
