<svg width="24" height="24" viewBox="0 0 24 24" fill="none" xmlns="http://www.w3.org/2000/svg">
<path fill-rule="evenodd" clip-rule="evenodd" d="M13.2945 6.70538C13.6841 6.31581 14.3157 6.31581 14.7053 6.70538C15.0946 7.09466 15.0949 7.72569 14.7061 8.11538L10.8299 12L14.7061 15.8846C15.0949 16.2743 15.0946 16.9053 14.7053 17.2946C14.3157 17.6842 13.6841 17.6842 13.2945 17.2946L7.99991 12L13.2945 6.70538Z" fill="#C2D1D9"/>
<mask id="mask0_808_12121" style="mask-type:alpha" maskUnits="userSpaceOnUse" x="8" y="6" width="7" height="12">
<path fill-rule="evenodd" clip-rule="evenodd" d="M13.2945 6.70538C13.6841 6.31581 14.3157 6.31581 14.7053 6.70538C15.0946 7.09466 15.0949 7.72569 14.7061 8.11538L10.8299 12L14.7061 15.8846C15.0949 16.2743 15.0946 16.9053 14.7053 17.2946C14.3157 17.6842 13.6841 17.6842 13.2945 17.2946L7.99991 12L13.2945 6.70538Z" fill="white"/>
</mask>
<g mask="url(#mask0_808_12121)">
<rect width="24" height="24" fill="#333333"/>
</g>
</svg>
