<svg width="24" height="24" viewBox="0 0 24 24" fill="none" xmlns="http://www.w3.org/2000/svg">
<path fill-rule="evenodd" clip-rule="evenodd" d="M6 13C5.44772 13 5 12.5523 5 12C5 11.4477 5.44772 11 6 11H18C18.5523 11 19 11.4477 19 12C19 12.5523 18.5523 13 18 13H6Z" fill="black" fill-opacity="0.7"/>
<mask id="mask0_808_12131" style="mask-type:alpha" maskUnits="userSpaceOnUse" x="5" y="11" width="14" height="2">
<path fill-rule="evenodd" clip-rule="evenodd" d="M6 13C5.44772 13 5 12.5523 5 12C5 11.4477 5.44772 11 6 11H18C18.5523 11 19 11.4477 19 12C19 12.5523 18.5523 13 18 13H6Z" fill="white"/>
</mask>
<g mask="url(#mask0_808_12131)">
<rect width="24" height="24" fill="#ffffff"/>
</g>
</svg>
