<svg width="24" height="17" viewBox="0 0 24 17" fill="none" xmlns="http://www.w3.org/2000/svg">
<mask id="path-1-inside-1_957_9939" fill="white">
<path fill-rule="evenodd" clip-rule="evenodd" d="M2 2H19.1765V2.82353H4.82353C3.71896 2.82353 2.82353 3.71896 2.82353 4.82353V12.1176H2V2ZM2.82353 14.1176H2C0.895432 14.1176 0 13.2222 0 12.1176V2C0 0.895431 0.895431 0 2 0H19.1765C20.281 0 21.1765 0.895431 21.1765 2V2.82353H22C23.1046 2.82353 24 3.71896 24 4.82353V14.9412C24 16.0457 23.1046 16.9412 22 16.9412H4.82353C3.71896 16.9412 2.82353 16.0457 2.82353 14.9412V14.1176Z"/>
</mask>
<path d="M19.1765 2H21.1765V0H19.1765V2ZM2 2V0H0V2H2ZM19.1765 2.82353V4.82353H21.1765V2.82353H19.1765ZM2.82353 12.1176V14.1176H4.82353V12.1176H2.82353ZM2 12.1176H0V14.1176H2V12.1176ZM2.82353 14.1176H4.82353V12.1176H2.82353V14.1176ZM21.1765 2.82353H19.1765V4.82353H21.1765V2.82353ZM19.1765 0H2V4H19.1765V0ZM21.1765 2.82353V2H17.1765V2.82353H21.1765ZM4.82353 4.82353H19.1765V0.823529H4.82353V4.82353ZM4.82353 4.82353L4.82353 4.82353V0.823529C2.61439 0.823529 0.823529 2.61439 0.823529 4.82353H4.82353ZM4.82353 12.1176V4.82353H0.823529V12.1176H4.82353ZM2 14.1176H2.82353V10.1176H2V14.1176ZM0 2V12.1176H4V2H0ZM2 16.1176H2.82353V12.1176H2V16.1176ZM-2 12.1176C-2 14.3268 -0.209136 16.1176 2 16.1176V12.1176H2H-2ZM-2 2V12.1176H2V2H-2ZM2 -2C-0.20914 -2 -2 -0.209137 -2 2H2V2V-2ZM19.1765 -2H2V2H19.1765V-2ZM23.1765 2C23.1765 -0.209141 21.3856 -2 19.1765 -2V2H19.1765H23.1765ZM23.1765 2.82353V2H19.1765V2.82353H23.1765ZM21.1765 4.82353H22V0.823529H21.1765V4.82353ZM22 4.82353L22 4.82353H26C26 2.61439 24.2091 0.823529 22 0.823529V4.82353ZM22 4.82353V14.9412H26V4.82353H22ZM22 14.9412V14.9412V18.9412C24.2091 18.9412 26 17.1503 26 14.9412H22ZM22 14.9412H4.82353V18.9412H22V14.9412ZM4.82353 14.9412L4.82353 14.9412H0.823529C0.823529 17.1503 2.61439 18.9412 4.82353 18.9412V14.9412ZM4.82353 14.9412V14.1176H0.823529V14.9412H4.82353Z" fill="#333333" mask="url(#path-1-inside-1_957_9939)"/>
</svg>
