<svg width="24" height="24" viewBox="0 0 24 24" fill="none" xmlns="http://www.w3.org/2000/svg">
<path fill-rule="evenodd" clip-rule="evenodd" d="M16.9997 13.5897C17.3893 13.9793 17.3893 14.6109 16.9997 15.0005C16.6104 15.3897 15.9794 15.3901 15.5897 15.0012L11.7051 11.1251L7.82046 15.0012C7.43076 15.3901 6.79974 15.3897 6.41046 15.0005C6.02089 14.6109 6.02089 13.9793 6.41046 13.5897L11.7051 8.29508L16.9997 13.5897Z" fill="#C2D1D9"/>
<mask id="mask0_808_12123" style="mask-type:alpha" maskUnits="userSpaceOnUse" x="6" y="8" width="12" height="8">
<path fill-rule="evenodd" clip-rule="evenodd" d="M16.9997 13.5897C17.3893 13.9793 17.3893 14.6109 16.9997 15.0005C16.6104 15.3897 15.9794 15.3901 15.5897 15.0012L11.7051 11.1251L7.82046 15.0012C7.43076 15.3901 6.79974 15.3897 6.41046 15.0005C6.02089 14.6109 6.02089 13.9793 6.41046 13.5897L11.7051 8.29508L16.9997 13.5897Z" fill="white"/>
</mask>
<g mask="url(#mask0_808_12123)">
<rect width="24" height="24" fill="#333333"/>
</g>
</svg>
