<svg width="22" height="24" viewBox="0 0 22 24" fill="none" xmlns="http://www.w3.org/2000/svg">
<mask id="mask0_2559_11726" style="mask-type:alpha" maskUnits="userSpaceOnUse" x="0" y="0" width="22" height="24">
<path fill-rule="evenodd" clip-rule="evenodd" d="M10.8 12C14.1147 12 16.8 9.31474 16.8 6C16.8 2.68526 14.1147 0 10.8 0C7.48526 0 4.8 2.68526 4.8 6C4.8 9.31474 7.48526 12 10.8 12ZM10.8 2.4C12.7892 2.4 14.4 4.01074 14.4 6C14.4 7.98926 12.7892 9.6 10.8 9.6C8.81069 9.6 7.19995 7.98926 7.19995 6C7.19995 4.01074 8.81069 2.4 10.8 2.4ZM21.6 22.8C21.6 23.4627 21.0627 24 20.4 24C19.7373 24 19.2 23.4627 19.2 22.8V20.4C19.2 18.6479 14.5872 16.8 10.8 16.8C7.0128 16.8 2.4 18.6479 2.4 20.4C2.4 20.4004 2.4 20.4007 2.4 20.4011V22.8C2.4 23.4627 1.86274 24 1.2 24C0.537258 24 0 23.4627 0 22.8V20.4C0 16.7223 5.79718 14.4 10.8 14.4C15.8028 14.4 21.6 16.7223 21.6 20.4V22.8Z" fill="#932639"/>
</mask>
<g mask="url(#mask0_2559_11726)">
<path d="M-1 0H23V24H-1V0Z" fill="#932639"/>
</g>
</svg>
